<?xml version="1.0" encoding="utf-8"?>
<!-- Generator: Adobe Illustrator 25.0.0, SVG Export Plug-In . SVG Version: 6.00 Build 0)  -->
<svg version="1.1" id="Capa_1" xmlns="http://www.w3.org/2000/svg" xmlns:xlink="http://www.w3.org/1999/xlink" x="0px" y="0px"
	 viewBox="0 0 1414 1080" style="enable-background:new 0 0 1414 1080;" xml:space="preserve">
<style type="text/css">
	.st0{fill:#CFACB6;}
	.st1{fill:#7C1729;}
	.st2{fill:#D1A6B8;}
	.st3{fill:#A03D52;}
	.st4{fill:#A32A43;}
	.st5{fill:#965461;}
	.st6{fill:#CCACAF;}
	.st7{fill:#CF9BA5;}
	.st8{fill:#E5CACE;}
	.st9{fill:#E4C0C6;}
	.st10{fill:#C28C98;}
	.st11{fill:#F4CED5;}
	.st12{fill:#CE1131;}
	.st13{fill:#9E0F2B;}
	.st14{fill:#9E112F;}
	.st15{fill:#9E132F;}
	.st16{fill:#8E112D;}
	.st17{fill:#9E1633;}
	.st18{fill:#900D2A;}
	.st19{fill:#791025;}
	.st20{fill:#9E1F3A;}
	.st21{fill:#810A1F;}
	.st22{fill:#A1112E;}
	.st23{fill:#990C2E;}
	.st24{fill:#951828;}
	.st25{fill:#9B0829;}
	.st26{fill:#9F5364;}
	.st27{fill:#98112C;}
	.st28{fill:#950B28;}
	.st29{fill:#810A1E;}
	.st30{fill:#FBFBFB;}
	.st31{fill:#E2E615;}
	.st32{fill:#EE0707;}
	.st33{fill:#9B0404;}
	.st34{fill:#80840A;}
	.st35{fill:#DD0A17;}
	.st36{fill:#DE0C1C;}
	.st37{fill:#DAD21E;}
	.st38{fill:#DCC520;}
	.st39{fill:#CFC21F;}
	.st40{fill:#C9B026;}
	.st41{fill:#DBC422;}
	.st42{fill:#C5A027;}
	.st43{fill:#A25818;}
	.st44{fill:#C5A020;}
	.st45{fill:#CA122F;}
	.st46{fill:#D70C30;}
	.st47{fill:#84081F;}
	.st48{fill:#8D1124;}
	.st49{fill:#9B0A28;}
	.st50{fill:#981527;}
	.st51{fill:#780A1B;}
	.st52{fill:#0CCDFF;}
	.st53{fill:#009DD4;}
	.st54{fill:#16A5D5;}
	.st55{fill:#CCCD1F;}
	.st56{fill:#E43A39;}
	.st57{fill:#CDCF1F;}
	.st58{fill:#A4A40B;}
	.st59{fill:#9C0C26;}
	.st60{fill:#A30926;}
	.st61{fill:#941927;}
	.st62{fill:#CF1030;}
	.st63{fill:#A40927;}
	.st64{fill:#A30422;}
	.st65{fill:#7E0B1F;}
	.st66{fill:#800A1F;}
	.st67{fill:#830821;}
	.st68{fill:#901124;}
	.st69{fill:#7B0A1C;}
	.st70{fill:#CD1131;}
	.st71{fill:#980C25;}
	.st72{fill:#A20827;}
	.st73{fill:#A60C2E;}
	.st74{fill:#BD0F33;}
	.st75{fill:#B01230;}
	.st76{fill:#79091A;}
	.st77{fill:#9CE9FE;}
	.st78{fill:#6EE4FB;}
	.st79{fill:#9B0C26;}
	.st80{fill:#730C1F;}
	.st81{fill:#BF0D38;}
	.st82{fill:#D30D34;}
	.st83{fill:#DEDEDD;}
	.st84{fill:#56AB62;}
	.st85{fill:#6A6A73;}
	.st86{fill:#262626;}
	.st87{fill:#0D0D0D;}
	.st88{fill:#222222;}
	.st89{fill:#C70C13;}
	.st90{fill:#095377;}
	.st91{fill:#050505;}
	.st92{fill:#B71434;}
	.st93{fill:#B61235;}
	.st94{fill:#B7103C;}
	.st95{fill:#17080A;}
	.st96{fill:#8F4257;}
	.st97{fill:#874C61;}
	.st98{fill:#032D29;}
	.st99{fill:#DEDEDE;}
	.st100{fill:#2164EB;}
	.st101{fill:#31A7F1;}
	.st102{fill:#0E469F;}
	.st103{fill:#6A6A72;}
	.st104{fill:#CE1030;}
	.st105{fill:#313131;}
	.st106{fill:#8A8635;}
	.st107{fill:#C6BB45;}
	.st108{fill:#C7142F;}
	.st109{fill:#76757B;}
	.st110{fill:#0C4EA5;}
	.st111{fill:#A65B37;}
	.st112{fill:#BA2D2E;}
	.st113{fill:#59282C;}
	.st114{fill:#151515;}
	.st115{fill:#042D24;}
	.st116{fill:#012D2F;}
	.st117{fill:#0C4EA6;}
	.st118{fill:#C5BE97;}
	.st119{fill:#232323;}
	.st120{fill:#F1F2D4;stroke:#000000;stroke-miterlimit:10;}
</style>
<g>
	<path class="st0" d="M31.2,86c0.29,0.03,0.59,0.06,0.88,0.09c1.02,1.07,0.99,2.42,1.03,3.76c0.03,1.2,0.02,2.4,0.02,3.6
		c0,288.99,0,577.97-0.02,866.96c0,2.24,0.36,4.54-0.57,6.72c-0.31,0.53-0.76,0.69-1.34,0.48C31.2,673.73,31.2,379.87,31.2,86z"/>
	<path class="st1" d="M1383.2,257.23c0.53-0.01,1.06-0.02,1.6-0.03c0,230.4,0,460.8,0,691.2c-0.58,0.21-1.02,0.05-1.33-0.48
		c-1.03-2.57-0.58-5.27-0.58-7.91c-0.02-217.36-0.02-434.72-0.03-652.07c0-9.73,0.07-19.46-0.05-29.19
		C1382.78,258.2,1382.91,257.7,1383.2,257.23z"/>
	<path class="st2" d="M747.2,32.4c0.06,0.22,0.09,0.44,0.06,0.67c-0.94,1.22-2.32,1.18-3.64,1.23c-1.86,0.07-3.73,0.03-5.6,0.03
		c-207.5,0-414.99,0-622.48,0.01c-6.03-0.05-12.06,0.03-18.08-0.03c-1.43-0.01-2.9,0.11-4.24-0.6c-0.52-0.31-0.66-0.75-0.42-1.31
		C310.93,32.4,529.07,32.4,747.2,32.4z"/>
	<path class="st3" d="M678.4,1015.6c-151.2,0-302.4,0-453.6,0c-0.21-0.58-0.05-1.02,0.48-1.33c1.63-0.79,3.39-0.59,5.11-0.59
		c147.47-0.01,294.95-0.01,442.42,0c1.72,0,3.48-0.21,5.11,0.58C678.45,1014.58,678.61,1015.02,678.4,1015.6z"/>
	<path class="st4" d="M224.82,1014.85c-0.01,0.25-0.02,0.5-0.02,0.75c-49.87,0-99.73,0-149.6,0c-0.21-0.57-0.05-1.02,0.48-1.33
		c1.63-0.79,3.39-0.59,5.11-0.59c46.12-0.02,92.23-0.02,138.35,0.01C221.08,1013.7,223.19,1013.2,224.82,1014.85z"/>
	<path class="st5" d="M678.4,1015.6c0.01-0.24,0.02-0.48,0.03-0.72c1.34-1.5,3.15-1.16,4.83-1.18c6.34-0.09,12.69,0.07,19.03-0.1
		c8.07-0.13,16.15-0.04,24.22-0.04c1.45,0,2.92,0,4.26,0.73c0.52,0.31,0.66,0.75,0.43,1.31C713.6,1015.6,696,1015.6,678.4,1015.6z"
		/>
	<path class="st6" d="M731.2,1015.6c0.1-0.19,0.15-0.4,0.15-0.62c1.26-1.35,2.56-1.31,3.89-0.1c-0.04,0.24-0.05,0.48-0.04,0.72
		C733.87,1015.6,732.53,1015.6,731.2,1015.6z"/>
	<path class="st7" d="M1384.08,948.59c0.24-0.06,0.48-0.13,0.72-0.19c0,1.33,0,2.67,0,4c-0.43,0.27-0.81,0.2-1.14-0.19
		C1383,950.91,1382.9,949.68,1384.08,948.59z"/>
	<path class="st8" d="M92.8,32.4c-0.02,0.22-0.03,0.44-0.03,0.66c-1.03,1.09-2.09,1.06-3.18,0.1c0.02-0.25,0.03-0.51,0.01-0.76
		C90.67,32.4,91.73,32.4,92.8,32.4z"/>
	<path class="st9" d="M72,1015.6c-0.03-0.23-0.04-0.46-0.04-0.68c0.44-0.53,0.97-0.57,1.57-0.33c0.21,0.21,0.29,0.43,0.24,0.66
		c-0.05,0.23-0.11,0.35-0.18,0.35C73.07,1015.6,72.53,1015.6,72,1015.6z"/>
	<path class="st10" d="M73.6,1015.6c0.01-0.23-0.01-0.46-0.04-0.69c0.51-0.51,1.03-0.5,1.58-0.06c0.08,0.25,0.1,0.5,0.07,0.75
		C74.67,1015.6,74.13,1015.6,73.6,1015.6z"/>
	<path class="st11" d="M1384.12,952.45c0.23,0,0.45-0.02,0.68-0.05c0,0.53,0,1.07,0,1.6l-0.33,0.04l-0.33-0.01
		C1383.6,953.51,1383.6,952.98,1384.12,952.45z"/>
	<path class="st12" d="M748.77,33.49c6.76,1.07,12.23,4.24,16.12,9.95c0.83,1.22,1.46,2.45,1.45,4.04
		c-0.1,13.84-0.14,27.68-0.19,41.52c-0.84,0.13-1.23-0.45-1.62-1.03c-6.97-10.16-17.11-13.78-28.89-13.85
		c-1.99-0.01-3.99,0.14-5.99,0.17c-63.7,1.17-127.41,0.8-191.11,0.84c-2.97,0-5.79,0.56-8.63,1.43
		c-36.73,11.3-69.82,29.57-100.74,52.14c-21.32,15.57-41.52,32.6-63.21,47.67c-25.84,17.96-53.69,31.16-85.1,35.8
		c-8.69,1.28-17.44,2.19-26.26,2.18c-55.06-0.03-110.12-0.01-165.18-0.02c-4.66,0-9.31-0.11-13.97-0.43
		c-5.48-0.37-10.87,0.64-15.65,3.73c-2.03-0.01-2.25-1.55-2.45-3.02c-0.21-1.59-0.12-3.19-0.12-4.79c0-37.95,0.19-75.9-0.12-113.85
		c-0.09-10.6,2.3-20.25,7-29.55c8.25-16.35,20.85-27.36,38.82-31.85c4.31-0.67,8.63-1.17,13.01-0.95c209.22,0,418.44,0,627.66-0.01
		C745.31,33.61,747.04,33.74,748.77,33.49z"/>
	<path class="st13" d="M1384.12,952.45c0,0.53,0.01,1.05,0.01,1.58c-0.09,0.53-0.19,1.06-0.28,1.6c-0.57,1.09,0.01,2.36-0.57,3.44
		c-0.06,0.45-0.13,0.9-0.19,1.35c-0.57,0.77-0.11,1.8-0.63,2.58c0.13,0.23,0.1,0.42-0.1,0.59c-1.16,0.21-1.31-0.68-1.58-1.44
		c-0.18-1-0.11-2,0.11-2.99c0.12-0.58,0.27-1.15,0.39-1.73c0.17-1,0.27-2.01,0.5-3.01c0.37-1.1,0.18-2.23,0.17-3.36
		c-0.07-2.14-0.06-4.27-0.06-6.4c0-225.37,0-450.74,0-676.1c0-1.87-0.05-3.73,0.04-5.59c0.06-0.75-0.02-1.48-0.42-2.14
		c-1.6-1.49-3.56-0.79-5.34-0.8c-51.35-0.09-102.71,0.06-154.05-0.1c-17.67-0.79-35.31-1.85-52.87-4.42
		c-19.2-2.81-37.9-7.42-55.92-14.56c-13.03-5.16-25.35-11.76-36.94-19.71c-16.53-11.34-31.28-24.81-46.35-37.92
		c-11.25-9.79-22.67-19.4-35.22-27.56c-1.57-1.02-3.8-1.66-3.73-4.22c0.6-0.39,1.19-0.38,1.78,0.02c6.5,3.44,12.28,7.95,18.12,12.35
		c13,9.81,24.92,20.89,37.16,31.59c12.06,10.54,24.51,20.54,38.23,28.89c20.71,12.62,43.18,20.64,66.84,25.5
		c19.09,3.92,38.4,6.04,57.88,6.66c1.45,0.05,2.93-0.04,4.32,0.55c1.11,1.14,2.51,0.48,3.74,0.48
		c53.24,0.04,106.48,0.03,159.73,0.05c1.44,0,2.93-0.35,4.32,0.35c0.86,0.67,0.79,1.63,0.79,2.55c0.01,1.87,0,3.73,0,5.6
		c0,226.15,0,452.31,0,678.46c0,1.33,0.04,2.66,0.07,4C1384.09,949.88,1384.11,951.17,1384.12,952.45z"/>
	<path class="st14" d="M748.77,33.49c-1.06,0.84-2.31,0.5-3.47,0.5c-209.9,0.01-419.8,0-629.7,0c-0.13,0-0.27-0.01-0.4-0.01
		c-0.23-0.14-0.3-0.28-0.23-0.42c0.08-0.14,0.15-0.21,0.23-0.21c1.46-0.05,2.93-0.13,4.39-0.13c207.76-0.01,415.53,0,623.29-0.01
		c1.46,0,2.92-0.08,4.39-0.13C747.76,33.21,748.27,33.35,748.77,33.49z"/>
	<path class="st15" d="M992.89,151.56c-0.57,0.02-1.15,0.03-1.72,0.05c-1.79,1.1-3.05-0.32-4.35-1.04
		c-11.32-6.27-22.95-11.92-35.06-16.47c-13.99-5.25-28.43-8.96-43.1-11.79c-3.68-0.71-3.67-0.77-4.43-3.02
		c1.09-0.09,2.18-0.23,3.24,0.21c0.45,0.06,0.9,0.12,1.35,0.18c0.81,0.56,1.84,0.16,2.67,0.61c0.44,0.06,0.89,0.13,1.33,0.19
		c0.78,0.57,1.8,0.12,2.6,0.63c0.22-0.14,0.42-0.1,0.59,0.09c0.81,0.69,1.89,0.25,2.76,0.68c0.42,0.06,0.83,0.13,1.25,0.19
		c0.75,0.61,1.78,0.09,2.54,0.66c0.24-0.12,0.46-0.09,0.65,0.1c0.76,0.66,1.82,0.15,2.61,0.68c0.23-0.12,0.42-0.08,0.58,0.12
		c0.73,0.69,1.8,0.13,2.56,0.7c0.25-0.11,0.47-0.06,0.65,0.14c0.6,0.4,1.31,0.43,1.98,0.61c4.87,0.75,9.45,2.5,14.09,4.03
		c15.41,5.1,30.09,11.8,43.98,20.18C990.79,149.98,992.07,150.44,992.89,151.56z"/>
	<path class="st16" d="M1383.22,257.98c-55.28,0-110.56,0.01-165.83,0.01c-0.8,0-1.62,0.12-2.39-0.04c-1.02-0.21-0.23-0.43,0-0.8
		c0.26-0.4,0.1,0.36,0.43-0.06c3.59-0.01,7.18-0.04,10.77-0.04c50.87,0,101.75,0,152.62,0.01c1.46,0,2.92,0.11,4.38,0.17
		C1383.2,257.48,1383.21,257.73,1383.22,257.98z"/>
	<path class="st17" d="M907.47,119.51c-1.18,0.04-2.35,0.08-3.53,0.12c-1.41,1.37-3.2,1.29-4.89,1.02
		c-4.77-0.76-9.56-0.55-14.35-0.56c-36.34-0.01-72.68,0-109.02-0.02c-2.25,0-4.53,0.25-6.73-0.51c-0.5-0.22-0.88-0.57-1.14-1.06
		c0.13-0.59,0.49-0.88,1.1-0.88c40.39-0.04,80.78,0,121.16-0.03c1.44,0,2.93,0.35,4.32-0.36
		C898.84,117.53,903.21,118.19,907.47,119.51z"/>
	<path class="st18" d="M894.4,117.23c-1.34,1.33-3.03,0.74-4.56,0.74C849.22,118.01,808.61,118,768,118
		c-0.19-0.3-0.17-0.59,0.06-0.86c0.93-0.04,1.86-0.11,2.79-0.11c39.99-0.01,79.98-0.01,119.97,0
		C892.01,117.04,893.21,117.17,894.4,117.23z"/>
	<path class="st19" d="M768.05,117.14c-0.02,0.29-0.04,0.57-0.06,0.86c0,0,0,0,0,0c0.49,5.58,0.27,11.16,0.33,16.75
		c-0.47,2.24,1.15,5.08-1.89,6.58c-1.22-1.11-1.22-2.62-1.19-4.06c0.27-13.4-1.4-26.75-0.82-40.15c0.09-2.15,0.28-4.3-0.12-6.44
		c-0.08-0.42-0.09-0.84-0.03-1.26c0.19-0.64,0.5-1.14,1.29-1.04c0.2,0.21,0.39,0.42,0.59,0.63c1.16,9.02,1.28,18.08,1.13,27.15
		c0.12,0.45,0.39,0.8,0.8,1.02L768.05,117.14z"/>
	<path class="st17" d="M911.49,120.3c-0.95,0.06-1.94,0.3-2.67-0.61C909.78,119.6,910.71,119.62,911.49,120.3z"/>
	<path class="st17" d="M915.42,121.12c-0.93,0.05-1.9,0.27-2.6-0.63C913.76,120.4,914.66,120.45,915.42,121.12z"/>
	<path class="st17" d="M918.76,121.89c-0.99,0.07-2.03,0.33-2.76-0.68C917,121.13,917.97,121.15,918.76,121.89z"/>
	<path class="st17" d="M922.55,122.74c-0.91,0.04-1.87,0.24-2.54-0.66C920.95,121.97,921.82,122.1,922.55,122.74z"/>
	<path class="st20" d="M925.82,123.52c-0.95,0.09-1.93,0.27-2.61-0.68C924.16,122.72,925.06,122.86,925.82,123.52z"/>
	<path class="st20" d="M928.96,124.34c-0.94,0.08-1.9,0.24-2.56-0.7C927.35,123.53,928.22,123.68,928.96,124.34z"/>
	<path class="st17" d="M931.6,125.09c-0.75,0.09-1.48,0.1-1.98-0.61C930.37,124.38,931.06,124.48,931.6,125.09z"/>
	<path class="st18" d="M768.09,117.17c-0.49-0.17-0.75-0.51-0.8-1.02C767.55,116.49,767.82,116.83,768.09,117.17z"/>
	<path class="st21" d="M735.24,1014.88c-1.3,0.03-2.6,0.07-3.89,0.1c-8.2-0.06-16.41-0.12-24.61-0.19
		c-1.46-0.01-2.91-0.05-4.37-0.08c-1.95-0.69-4.06-0.03-6.01-0.71c-5.81-1.03-11.24-2.99-16.27-6.13
		c-4.71-2.94-7.14-6.99-6.75-12.61c-0.03-1.18,0.09-2.33,0.35-3.48c0.61-2.09,0.38-4.23,0.38-6.34c0.02-12.89,0.01-25.78,0.01-38.67
		c0-1.72,0.12-3.46-0.4-5.15c-0.21-1-0.21-2-0.04-3c0.92-4.18,0.19-8.42,0.5-12.62c0.11-1.55-0.54-3.61,1.95-4.09
		c2.02,3.17,0.83,6.71,1.11,10.08c0.12,1.45,0.07,2.91,0,4.37c0.22,2.53-0.2,5.06-0.04,7.59c0.01,14.39,0,28.79,0.04,43.18
		c0,1.24-0.65,2.96,0.79,3.6c1.13,0.49,2.09-0.9,3.09-1.51c7.09-4.38,15.06-6.05,23.12-7.22c14.52-2.1,28.96-1.44,43.21,2.21
		c4.68,1.2,9.22,2.75,13.16,5.61c2.59,1.88,3.09,0.79,3.08-1.76c-0.03-11.33-0.02-22.66-0.01-33.99c0-2.13-0.09-4.27,0.35-6.38
		c0.29-1.01,0.46-2.07,0.91-3.01c0.36-0.76,0.77-1.9,1.95-0.73c0.92,1.58,0.81,3.34,0.8,5.07c-0.01,14.93,0.08,29.85-0.02,44.77
		c0.04,0.69-0.08,1.38-0.01,2.08c0.01,0.46-0.13,0.88-0.41,1.25c-0.27,0.28-0.72,0.53-0.77,0.84c-0.87,5.82-4.95,8.85-9.77,11.16
		c-5.05,2.43-10.46,3.74-15.94,4.8C738.91,1014.31,737.07,1014.57,735.24,1014.88z"/>
	<path class="st22" d="M767.18,996.41c-0.24-0.28-0.49-0.57-0.73-0.85c1.17-1.09,2.65-1.15,4.12-1.2c1.87-0.06,3.73-0.03,5.6-0.03
		c189.31,0,378.61-0.03,567.92,0.06c11.07,0.01,20.03-3.79,26.93-12.33c3.73-4.62,5.77-10.16,7.71-15.72
		c0.57-1.64,0.47-3.86,2.86-4.36c0.03,0.65,0.15,1.26,0.79,1.62c-1.81,9.51-5.75,17.97-12.79,24.73c-5.77,5.54-12.73,8.55-20.8,8.8
		c-1.68-0.66-3.43-0.32-5.14-0.32c-190.45-0.02-380.89-0.02-571.33-0.04C770.6,996.77,768.84,997.16,767.18,996.41z"/>
	<path class="st23" d="M767.18,996.41c192.61,0,385.22-0.01,577.83,0.01c1.27,0,2.7-0.49,3.77,0.7c-1.46,0.07-2.92,0.2-4.37,0.2
		c-190.81,0.01-381.62,0.01-572.42,0c-1.59,0-3.19-0.11-4.78-0.17C767.2,996.9,767.19,996.66,767.18,996.41z"/>
	<path class="st22" d="M1383.29,959.07c-0.01-1.18-0.45-2.43,0.57-3.44C1383.98,956.83,1384.07,958.02,1383.29,959.07z"/>
	<path class="st22" d="M1382.47,963.01c-0.05-0.92-0.27-1.89,0.63-2.58C1383.22,961.36,1383.16,962.26,1382.47,963.01z"/>
	<path class="st24" d="M674.36,995.55c-0.77,6.93,3.74,10.48,8.97,13.11c4.22,2.12,8.7,3.84,13.46,4.56
		c0.06,1.23-0.85,1.22-1.62,1.14c-7.58-0.79-15.16-0.02-22.74-0.01c-145.86,0.05-291.71,0.04-437.57,0.04
		c-51.32,0-102.64,0.01-153.96-0.02c-3.71,0-7.46-0.03-11.1-0.88c-14.48-3.41-23.77-12.94-30.14-25.84
		c-0.41-0.83-0.66-1.74-1.14-2.55c-0.39-0.86-0.87-1.68-1.24-2.56c-0.23-0.39-0.38-0.82-0.46-1.27c-1.23-3.45-2.16-6.99-2.97-10.56
		c-0.38-1.69-0.52-3.39,0.53-4.95c0.8-2.21,0.4-4.5,0.4-6.74c0.02-287.38,0.02-574.76,0.02-862.14c0-4.52,0.28-9.05-0.49-13.53
		c0.46-3.98,1.97-7.64,3.47-11.3c3.27-6.52,6.7-12.99,11.68-18.4c4.77-5.19,10.28-9.5,16.73-12.52c0.63-0.3,2.24-0.26,0.79-1.62
		c0.98-0.86,2.1-1.41,3.42-1.51c3.14,0.26,5.96-1.18,8.76-2.1c7.58-2.49,15.4-1.42,23.08-2.17c1.18-0.11,1.6,0.73,0.96,1.85
		c-10.78,2.87-20.2,8.1-27.84,16.31c-4.66,5-8.24,10.76-11.07,16.95c-1.36,2.99-2.66,6.01-3.74,9.16
		c-1.86,5.42-2.17,10.88-2.16,16.5c0.05,39.06,0.03,78.13,0.03,117.19c0,1.33,0.01,2.67,0.03,4c0.02,0.98,0.63,1.39,1.52,1.49
		c-0.72,6.82,0.01,13.68-0.69,20.51c-0.64,1.8-0.55,3.68-0.55,5.54c-0.01,235.17-0.03,470.35,0.07,705.52
		c0.01,12.82,3.67,24.72,12.32,34.59c7.12,8.13,16.53,11.66,27.04,12.73c1.19,0.12,2.4,0.03,3.6,0.03c175.58,0,351.16,0,526.74-0.01
		c2.77,0,5.64,0.49,8.19-1.14c3.89-1.07,7.87-0.53,11.82-0.58c6.86-0.08,13.73-0.05,20.59-0.01
		C670.93,994.35,672.83,994.19,674.36,995.55z"/>
	<path class="st25" d="M34.39,966.8c-0.03,3.43,0.87,6.69,1.82,9.94c0.51,1.74,1.44,3.37,1.38,5.26c-0.85,0.42-1.14-0.21-1.46-0.78
		c-1.83-4.05-2.98-8.28-3.44-12.7c-0.54-1.42-0.27-2.91-0.27-4.36c-0.01-291.32-0.01-582.65,0-873.97c0-1.46-0.24-2.93,0.24-4.37
		c0.82-5.02,2.29-9.82,4.76-14.29c0.35-0.41,0.68-0.39,0.98,0.06c-1.07,3.47-2.13,6.94-3.2,10.4c-1,2.26,0.28,4.67-0.47,6.95
		c-0.02,0.95-0.01,1.9,0.03,2.85c0.05,2.27,0.03,4.54,0.03,6.81c0,287.41,0,574.82-0.01,862.23
		C34.78,962.83,35.04,964.85,34.39,966.8z"/>
	<path class="st26" d="M32.66,85.82c0.04,1.46,0.13,2.92,0.13,4.39c0.01,292.11,0.01,584.21,0.01,876.32c0,0.66-0.07,1.33-0.1,1.99
		c-0.24-0.3-0.48-0.6-0.72-0.9c0.01-1.87,0.02-3.73,0.02-5.6C32,671.51,32,381,32,90.48c0-1.47,0.05-2.93,0.08-4.4
		C32.26,85.97,32.45,85.88,32.66,85.82z"/>
	<path class="st27" d="M38.4,71.6c-0.33-0.02-0.65-0.04-0.98-0.06c5.94-14.29,15.29-25.42,29.55-32.04
		c0.64,0.13,1.65,0.07,1.84,0.44c0.47,0.9-0.48,1.53-1.12,1.7c-4.1,1.15-6.84,4.33-10.24,6.46c-7.73,4.85-12.17,12.02-16.27,19.63
		C40.4,69.17,39.1,70.15,38.4,71.6z"/>
	<path class="st27" d="M103.2,35.57c-0.14-0.66-0.3-1.49-1.17-1.24c-3.02,0.89-6.1,0.54-9.12,0.4c-3.63-0.17-7.18,0.57-10.65,1.12
		c-2.43,0.39-5.09,1.18-7.46,2.32c-1.48,0.71-3,1.15-4.41-0.19c6.02-3.12,12.63-3.86,19.2-4.82c1.07,0.27,2.13,0.12,3.18-0.1
		c7.48,0.09,14.95,0.19,22.43,0.28c0,0.21,0,0.42,0,0.63C111.06,33.51,107.2,35.03,103.2,35.57z"/>
	<path class="st28" d="M36.14,981.22c0.49,0.26,0.98,0.52,1.46,0.78c0,0,0,0,0,0c0.45,0.44,0.32,1.17,0.8,1.6
		c1.14,0.84,1.57,2.16,2.05,3.37c2.63,6.55,7.06,11.8,12,16.65c4.04,3.96,9.06,6.28,14.37,8.06c6.01,2.01,12.2,2.34,18.45,2.34
		c45.18-0.01,90.36-0.01,135.54-0.01c149.08,0,298.17-0.01,447.25,0.04c6.79,0,13.49-1.38,20.29-0.85c1.98,0.15,3.98-0.2,5.91,0.62
		c0.87,0.37,1.85,0.31,2.52-0.58c1.64,1.33,3.96,0.1,5.58,1.49c-7.98,0.05-15.96,0.11-23.94,0.16c-1.46-0.03-2.93-0.07-4.39-0.07
		c-148.27,0-296.55,0-444.82,0c-1.47,0-2.93,0.03-4.4,0.04c-49.9,0-99.79,0-149.69,0c-0.53,0.02-1.05,0.04-1.58,0.06
		c-0.53,0-1.06,0-1.59,0.01C53.03,1011.11,42.28,998.62,36.14,981.22z"/>
	<path class="st29" d="M58.4,237.2c0-4.85,0.07-9.71-0.03-14.56c-0.04-2.05,0.26-3.89,1.6-5.48c0.84-1.69,2.38-2.61,4.05-3.02
		c4.36-1.05,8.75-2.16,13.32-1.21c1.16,0.24,2.38,0.2,3.58,0.2c58.64,0.02,117.29,0.03,175.93,0.05c5.85,0,11.62-0.98,17.43-1.44
		c8.78-0.7,17.29-2.56,25.77-4.81c8.75-2.32,17.25-5.35,25.55-8.94c13.46-5.82,26.05-13.2,38.1-21.49
		c11.71-8.05,22.94-16.76,34.17-25.45c7.24-5.6,14.38-11.33,21.83-16.69c7.87-5.66,15.56-11.57,23.63-16.95
		c14.63-9.74,29.68-18.78,45.62-26.23c14.11-6.6,28.69-12,43.55-16.67c2.24-0.71,4.48-0.55,6.73-0.55
		c43.72-0.02,87.43-0.02,131.15-0.02c5.06,0,10.16,0.38,15.19-0.06c15.96-1.39,31.95-0.15,47.9-0.87
		c9.62-0.44,18.06,2.02,25.79,7.44c2.84,1.99,5.3,4.41,6.31,7.91c-0.27,0.31-0.55,0.63-0.82,0.94c-1.43,0.14-2.14-0.89-2.87-1.83
		c-6-7.74-14.38-11.08-23.67-11.43c-13.69-0.52-27.42-0.27-41.14-0.09c-9.08,0.12-16.14,4-20.41,12.29
		c-1.35,1.22-1.13,2.84-1.2,4.42c-0.08,1.94,0.44,4-1.07,5.68c-1.99,1.12-4.17,0.71-6.27,0.71c-42.91,0.03-85.81,0.17-128.72-0.06
		c-16.64-0.09-31.62,5.07-46.07,12.54c-18.04,9.33-34.47,21.17-50.66,33.29c-20.12,15.06-40.31,30.04-61.05,44.23
		c-22.54,15.43-45.8,29.72-71.49,39.45c-15.89,6.01-32.24,9.83-49.4,9.81c-61.03-0.08-122.06-0.06-183.09-0.01
		c-0.49,0.01-0.97,0.01-1.45,0.01c-4.45-0.03-8.9,0.02-13.34-0.03C61.28,238.28,59.65,238.48,58.4,237.2z"/>
	<path class="st30" d="M231.63,118.7c-0.05,40.45-33.04,73.03-74.04,72.78c-40.74-0.25-72.71-33.94-72.4-73.61
		c0.31-40.3,32.81-72.78,73.23-72.78C199.11,45.1,231.68,77.85,231.63,118.7z"/>
	<path class="st31" d="M356.06,81.98c-7.43-6.2-8.26-19.44-0.25-27.07c8.22-7.84,21.77-6.34,27.5,2.05
		c0.09,0.45,0.37,0.76,0.73,1.02l-0.01-0.02c0.23,0.27,0.44,0.56,0.64,0.85c0.16,0.19,0.25,0.4,0.26,0.65
		c0.26,0.51,0.08,0.88-0.38,1.16c-0.32,0.06-0.63,0.01-0.93-0.13c-0.28-0.16-0.54-0.36-0.8-0.56c-0.13-0.1-0.25-0.21-0.38-0.31
		c-0.28-0.19-0.54-0.4-0.82-0.59c-0.15-0.09-0.29-0.18-0.44-0.27c-0.32-0.16-0.63-0.34-0.94-0.52c-3.56-2.33-7.51-3.24-12.24-3.3
		c6.64,1.36,10.13,5.96,9.79,12.3c-0.27,5.06-4.63,9.64-9.64,10.13c-6.67,0.65-11.05-2.37-12.77-8.99c0.04,2.08,0.08,3.93,0.6,5.74
		c0.52,1.8,1.39,3.46,2.14,5.17c0.24,0.51,0.45,1.04,0.6,1.59c0.09,0.37,0.08,0.74,0,1.11c-0.42,0.67-0.91,1.16-1.79,0.76
		l-0.07-0.04C356.53,82.5,356.27,82.27,356.06,81.98z"/>
	<path class="st32" d="M245.61,51.61c3.44-1.65,7.11-1.76,10.83-1.63c3.18,0.12,5.86,1.41,8.37,3.21c0.4,0.51,1.16,0.33,1.58,0.81
		l0.01,0.01c0.27,0.26,0.53,0.52,0.8,0.79l0,0c0.66,0.4,1.19,0.94,1.6,1.59l0,0c0.76,0.96,0.36,1.56-0.6,2.01
		c-0.34,0.05-0.67,0.03-1-0.06c-0.3-0.13-0.59-0.3-0.86-0.49c-0.14-0.09-0.27-0.19-0.41-0.27c-0.29-0.16-0.57-0.32-0.86-0.48
		c-0.32-0.12-0.62-0.26-0.94-0.38c-0.51-0.16-1.03-0.3-1.55-0.43c-2.68-0.72-5.39-1.24-8.15-1.46c6.86,2.54,10.19,7.91,8.63,13.93
		c-1.57,6.08-6.88,9.48-13.36,8.55c-5.29-0.76-8.85-5.16-8.55-10.57c0.06-0.53-0.85-0.09-0.32-0.16c0.03,0,0.06,0.08,0.05,0.25
		c-0.41,7.07,1.45,13.12,7.69,17.23c0.64,0.42,1.31,0.96,1.04,1.94c-4.88,0.01-7.91-2.93-10.49-6.58c-0.52-0.74-0.69-1.72-1.54-2.24
		c-2.38-5.23-2.86-10.55-0.8-15.99l0,0C238.84,57.18,241.59,53.82,245.61,51.61z"/>
	<path class="st31" d="M300.03,81.98c-7.13-5.74-8.16-18.41-1.17-26.17c6.36-7.07,17.71-8.02,25.21-1.99
		c0.17,0.41,0.42,0.76,0.88,0.87l-0.04-0.06c0.48,0.79,1.68,1.37,0.73,2.57c-0.29,0.19-0.62,0.28-0.97,0.26
		c-0.34-0.06-0.67-0.16-0.99-0.29c-0.33-0.11-0.65-0.24-0.97-0.37c-0.5-0.17-1.01-0.33-1.52-0.47c-3.22-0.74-6.38-1.92-9.78-1.18
		c-0.48,0.03-0.97,0.05-1.46,0.01c0.55,0.11,1.11,0.02,1.67,0.01c5.54,0.14,9.73,4.33,10.14,10.15c0.41,5.73-3.57,11.1-8.87,11.97
		c-6.69,1.1-11.54-1.95-13.46-8.14c-0.74,5.53,2.55,9.96,5.58,14.49c-0.24,1.11-0.81,1.43-1.8,0.76l-0.02-0.01
		c-0.29-0.25-0.52-0.58-0.92-0.68l0.03,0.04C301.75,82.89,300.72,82.66,300.03,81.98z"/>
	<path class="st33" d="M249.63,86.01c-3.06-1.9-5.87-4.04-7.64-7.3c-2.34-4.32-2.74-8.75-0.81-14.08c0.73,3.82,0.98,7.01,3.83,9.43
		c2.9,2.46,6.01,2.62,9.31,2.29c4.18-0.41,7.98-5.29,8.07-10.03c0.11-5.8-3.59-9.75-10.56-11.04c2.37-1.5,4.73-1.51,7.15-0.96
		c1.67,0.38,3.32,0.86,4.98,1.3c0.28,0.24,0.56,0.49,0.83,0.74c0.25,0.05,0.5,0.07,0.76,0.07c0.3,0.24,0.59,0.49,0.85,0.78l0,0
		c0.27,0.26,0.53,0.53,0.81,0.78l0.01,0c3.91,1.65,4.65,5.3,5.57,8.84c-0.06,3.17,0.23,6.32-0.8,9.46
		c-2.02,6.17-9.41,11.2-14.9,10.6C254.6,86.62,252.05,86.87,249.63,86.01z"/>
	<path class="st34" d="M358.61,81.94c-0.13-0.25-0.25-0.5-0.38-0.75c-0.14-0.29-0.35-0.52-0.63-0.68c-1.5-2.95-3.15-5.85-3.17-9.32
		c-0.01-1.87,0.1-3.7,1.16-5.36c1.76,8.05,5.33,11.14,12.26,10.64c4.6-0.33,8.7-4.48,9-9.11c0.43-6.62-3.01-10.59-10.77-12.12
		c4.24-2.1,8.08-1.08,11.85,0.51c1.33,0.56,2.5,1.48,3.75,2.24c0.2,0.3,0.46,0.54,0.76,0.73l0.06,0.06c0.19,0.3,0.43,0.54,0.74,0.73
		l0.08,0.08c0.19,0.3,0.43,0.56,0.71,0.78l0.03,0.02c2.09,1.33,2.26,3.71,3.13,5.7c0.13,3.8,0.66,7.62-1.14,11.26
		c-3.11,6.28-8.09,9.5-15.1,9.56c-1.45,0.01-2.9-0.05-4.35-0.08c-0.92-0.59-2.06-0.55-3.01-1.04
		C361.62,84.88,359.2,84.59,358.61,81.94z"/>
	<path class="st34" d="M323.18,56.26c0.22,0.12,0.45,0.18,0.69,0.2c0.36,0.19,0.66,0.44,0.92,0.75l0,0
		c2.23,0.81,3.54,2.56,4.61,4.56c1.15,1.49,1.22,3.36,1.79,5.05c0.29,5.24,0.34,10.42-3.86,14.47c-0.8,0.82-1.54,1.7-2.48,2.37
		c-4.16,3.77-9.26,3.34-14.29,3.21c-0.7-0.74-1.68-0.35-2.5-0.61c-1.05-0.92-2.8-0.91-3.32-2.52c-5.86-5.5-7.73-11.77-5.12-18.2
		c0.61,3.27,1.28,6.06,3.59,8.24c3.34,3.15,7.23,3.52,11.11,2.08c3.62-1.34,6.16-4.14,6.51-8.33c0.37-4.5-1.15-8.1-5.11-10.46
		c-1.38-0.82-2.85-1.45-4.5-1.49c-0.27-0.17-0.36-0.34-0.28-0.53c0.08-0.19,0.16-0.28,0.24-0.28c3.87-1.7,7.48-0.05,11.15,0.87
		C322.59,55.86,322.88,56.07,323.18,56.26z"/>
	<path class="st35" d="M272.78,66.83c-1.49-3.18-3.1-6.28-5.57-8.84c1.04-0.02,1.56-0.56,1.59-1.59
		C272.16,59.1,272.71,62.87,272.78,66.83z"/>
	<path class="st36" d="M236.81,61.2c-0.08,0.92,0.02,1.9-0.26,2.76c-0.96,3.03-0.6,5.98,0.16,8.99c0.35,1.39,1.09,2.73,0.89,4.25
		c-1.87-1.93-2.67-4.26-2.39-6.9C235.54,67.23,234.07,63.84,236.81,61.2z"/>
	<path class="st36" d="M245.61,51.61c-0.39,0.51-0.67,1.22-1.19,1.5c-2.88,1.55-4.59,4.12-6.21,6.8c-0.32,0.52-0.93,0.86-1.4,1.29
		C238.03,56.44,240.92,53.2,245.61,51.61z"/>
	<path class="st37" d="M328.91,61.95c-1.37-1.58-2.74-3.16-4.12-4.74c1.32-0.8,0.11-1.72,0.12-2.58c2.44,1.51,3.98,3.7,4.83,6.41
		C330.08,61.92,329.64,62.07,328.91,61.95z"/>
	<path class="st38" d="M358.61,81.94c1.74,1.17,3.22,2.74,5.28,3.41c0.16,0.74-0.02,1.11-0.85,0.79c-2.43-0.45-4.51-1.53-6.13-3.43
		C357.48,82.45,358.04,82.2,358.61,81.94z"/>
	<path class="st39" d="M387.17,66.08c-1.44-1.68-2.08-3.8-3.13-5.7c0.3-0.31,0.59-0.61,0.89-0.92
		C386.49,61.39,387.35,63.56,387.17,66.08z"/>
	<path class="st40" d="M328.91,61.95c0.28-0.3,0.55-0.6,0.83-0.91c1.41,1.69,1.65,3.68,1.45,5.78
		C330.05,65.37,329.73,63.55,328.91,61.95z"/>
	<path class="st41" d="M304.72,83.74c1.14,0.74,2.29,1.47,3.43,2.21c-0.32,0.38-0.7,0.44-1.13,0.19c-1.47-0.15-2.78-0.63-3.8-1.76
		C303.79,84.33,304.37,84.31,304.72,83.74z"/>
	<path class="st42" d="M363.04,86.15c0.28-0.27,0.57-0.53,0.85-0.79c1.01,0.28,2,0.6,2.69,1.46
		C365.34,86.9,364.08,87.1,363.04,86.15z"/>
	<path class="st43" d="M324.84,83.66c0.44-1.19,1.26-1.99,2.48-2.37C327.06,82.67,326.29,83.52,324.84,83.66z"/>
	<path class="st41" d="M300.03,81.98c1.17,0.05,2,0.54,2.28,1.75C301.24,83.56,300.47,82.99,300.03,81.98z"/>
	<path class="st44" d="M307.02,86.14c0.38-0.06,0.75-0.12,1.13-0.19c0.92-0.02,1.82,0.02,2.39,0.92
		C309.32,86.9,308.06,87.05,307.02,86.14z"/>
	<path class="st35" d="M268.8,56.4c-0.76-0.3-1.3-0.83-1.6-1.59C268.24,54.83,268.78,55.35,268.8,56.4z"/>
	<path class="st35" d="M266.38,54.01c-0.66-0.02-1.25-0.17-1.58-0.81C265.46,53.21,266.06,53.35,266.38,54.01z"/>
	<path class="st41" d="M302.29,83.69c0.45,0.04,0.74,0.28,0.92,0.68C302.75,84.35,302.44,84.14,302.29,83.69z"/>
	<path class="st38" d="M356.06,81.98c0.26,0.23,0.52,0.46,0.78,0.69C356.4,82.65,356.15,82.4,356.06,81.98z"/>
	<path class="st39" d="M384.67,58.81c-0.21-0.28-0.42-0.57-0.64-0.85C384.44,58.09,384.69,58.35,384.67,58.81z"/>
	<path class="st39" d="M384.04,57.98c-0.46-0.18-0.71-0.52-0.73-1.01C383.74,57.16,383.97,57.51,384.04,57.98z"/>
	<path class="st37" d="M324.95,54.7c-0.5-0.09-0.78-0.39-0.88-0.87C324.52,53.95,324.84,54.22,324.95,54.7z"/>
	<path class="st35" d="M267.19,54.81c-0.27-0.26-0.53-0.53-0.8-0.79C266.66,54.28,266.93,54.54,267.19,54.81z"/>
	<path class="st12" d="M1381.58,961.98c-2,5.3-3.46,10.8-6.26,15.78c-6.37,11.31-15.79,17.81-29,17.82
		c-192.09,0.04-384.19,0.03-576.28,0.02c-1.2,0-2.4-0.02-3.6-0.04c-0.01-17.32-0.02-34.65-0.03-51.97c-0.62-0.57-0.9-1.3-1.02-2.1
		c-0.45-12.38,0.53-24.75,0.59-37.11c0.23-45.18,0.09-90.36,0.1-135.55c0-2.26-0.13-4.53,0.24-6.78c0.8-2.33,0.54-4.75,0.54-7.14
		c0.04-54.49-0.04-108.98,0.04-163.48c0.05-1.06,0.15-2.12,0.87-2.98c0.48-0.3,0.96-0.3,1.45-0.02c2.01,1.74,1.58,4.14,1.55,6.35
		c-0.39,22.39-0.5,44.78-0.31,67.17c0.06,7.28,1.91,14.51,0.89,21.87c-0.19,1.36,1.08,2.34,1.47,3.06
		c-1.12-1.35-1.58-3.23-1.29-5.53c0.84-6.54-1.04-12.97-1.09-19.48c-0.11-14-0.47-28.01,0.05-41.99
		c1.52-41.02,1.1-82.05,1.21-123.09c0-1.2,0-2.4,0.3-3.58c0.69-2.06,0.45-4.19,0.48-6.3c0.18-12.83-0.35-25.66,0.28-38.48
		c0.58-1.95,0.53-3.94,0.52-5.94c0-14.25,0-28.5,0-42.74c0-1.2-0.06-2.4,0.02-3.59c0.13-1.93-0.49-4.11,1.43-5.54
		c0.67-0.5,1.74-0.41,2.16,0.31c1.13,1.96,0.96,4.05,0.12,6.1c-1.27,1.15-0.98,2.69-0.98,4.12c-0.02,72.12-0.02,144.24-0.01,216.37
		c3.54,25.68,1.03,51.49,1.5,77.24c0.47,25.72-0.24,51.46,0.2,77.18c0.42,24.66-0.2,49.32,0.38,73.96
		c0.55,23.19,0.01,46.38,0.33,65.46c0-16.39,0.33-36.89-0.09-57.37c-0.51-24.79,0.06-49.58-0.34-74.36
		c-0.82-50.92-0.13-101.83-0.35-152.75c-0.01-1.83-0.42-3.74,0.56-5.49c1.21-1.39,0.59-3.06,0.6-4.59
		c0.04-47.16,0.03-94.32,0.03-141.48c0-1.49-0.01-2.99,0-3.74c0.12,0.37-0.04,1.5-0.04,2.62c0.01,47.83,0.01,95.65-0.01,143.48
		c0,1.18,0.29,2.41-0.38,3.52c-1.73,0.74-2.11-0.42-2.3-1.7c-0.19-1.32-0.1-2.66-0.1-3.99c0-70.95-0.01-141.9,0.01-212.85
		c0-1.71-0.32-3.47,0.48-5.11c1.7-1.64,1.26-3.79,1.01-5.67c-0.48-3.73-0.36-7.44-0.37-11.17c-0.06-43.84-0.17-87.67,0.19-131.51
		c0.2-23.98,0.09-47.95,0.25-71.92c0.04-5.96-1.19-11.95,0.72-17.83c0.14-0.42,0.04-0.54-0.05-0.28c-0.13,0.38-0.28,0.74-0.54,1.07
		c-0.29,0.12-0.71,0.19-0.74,0.09c-0.99-3.86-2.04-7.71-2.78-10.25c1.22,2.8,1.27,7.27,3.21,11.29c-0.57,6.25,0.17,12.49,0.2,18.73
		c0.23,44.88-0.71,89.75-0.42,134.63c-2.97,19.59-0.85,39.31-1.58,58.95c-0.06,1.57,0.44,3.62-1.94,4.22
		c-1.48-1.36-1.18-3.18-1.18-4.87c-0.03-26.9-0.47-53.82,0.15-80.71c0.4-17.05,0.78-34.1,0.31-51.11
		c-0.61-22.21-1.44-44.41-1.28-66.63c0.02-3.06-0.14-6.11,0.61-9.14c0.39-1.56,0.23-3.19-0.67-4.63
		c-1.85-6.87-0.99-13.91-1.21-19.71c-0.41,6.44,0.55,14.05,0.25,21.65c-0.07,1.67,0.55,3.95-2.28,4.26
		c-1.92-1.27-1.47-3.29-1.48-5.07c-0.06-9.01-0.22-18.02,0.71-27c0.24-5.37-0.5-10.77,0.41-16.12c42.02-0.01,84.03-0.03,126.05-0.02
		c3.31,0,6.52,1.27,9.87,0.82c1.64,1.3,3.65,1.33,5.58,1.72c6.2,1.26,12.49,2.28,18.54,4.08c12.53,3.71,25.08,7.39,36.96,13.02
		c8.6,4.08,17.17,8.18,25.37,13.02c0.21,0.13,0.52,0.09,0.78,0.13c2.28,2.69,5.54,4.04,8.32,6.06c6.86,4.98,13.61,10.06,20.17,15.45
		c8.91,7.32,17.46,15.05,26.19,22.56c6.74,5.79,13.4,11.69,20.51,17c10.2,7.61,20.74,14.65,32.21,20.38
		c12.53,6.26,25.53,11.12,38.97,14.83c6.87,1.89,13.87,3.37,20.89,4.73c7.8,1.51,15.68,2.37,23.52,3.54
		c3.75,0.56,7.72,0.51,11.45,1.17c6.99,1.24,14.08-0.15,21.03,1.36c2.04,0.44,4.25,0.1,6.38,0.12c2.63,1.69,6.04-0.28,8.59,1.82
		c1.84,0.58,3.72,0.23,5.56,0.23c47.24,0.02,94.47,0.01,141.71,0.04c2.21,0,4.57-0.54,6.52,1.1c0.01,2,0.02,4,0.02,6
		c0,224.65,0,449.31,0,673.96c0,3.47-0.02,6.93-0.03,10.4c-0.7,0.67-0.08,1.75-0.75,2.43c-0.02,1.06-0.03,2.11-0.05,3.17
		c-0.24,0.28-0.49,0.55-0.73,0.83C1381.63,959.85,1381.6,960.91,1381.58,961.98z"/>
	<path class="st45" d="M1228.8,261.2c-1.03-1.24-2.45-0.75-3.71-0.78c-1.65-0.03-3.16-0.27-4.28-1.61
		c52.84,0,105.68-0.02,158.52,0.02c1.39,0,3.39-0.91,3.86,1.58c-0.82,1.48-2.25,1.17-3.55,1.17c-49.51,0.01-99.01,0.01-148.52,0
		C1230.33,261.58,1229.51,261.71,1228.8,261.2z"/>
	<path class="st46" d="M1228.8,261.2c49.65,0,99.29,0,148.94,0c1.85,0,3.75,0.28,5.44-0.78c0,0.53,0,1.06,0,1.59
		c-50.55,0-101.1,0-151.64-0.01c-1.15,0-2.34,0.29-3.46-0.21c-0.04-0.02-0.04-0.26,0-0.28
		C1228.31,261.37,1228.56,261.29,1228.8,261.2z"/>
	<path class="st22" d="M1382.43,954.79c-0.01-0.89-0.13-1.81,0.75-2.43C1383.18,953.24,1383.36,954.19,1382.43,954.79z"/>
	<path class="st22" d="M1381.65,958.79c0.24-0.28,0.49-0.55,0.73-0.83C1382.14,958.23,1381.89,958.51,1381.65,958.79z"/>
	<path class="st18" d="M768.03,118.83c-0.02,5.33-0.04,10.65-0.06,15.98c-0.26,0.36-0.51,0.34-0.75-0.02
		c0-4.36-0.04-8.72,0.01-13.07c0.01-1.27-0.44-2.68,0.78-3.71C768.01,118.28,768.02,118.55,768.03,118.83z"/>
	<path class="st12" d="M676,88.4c1.69-6.01,5.89-9.59,11.51-11.7c3.62-1.36,7.37-1.99,11.29-1.96c12.76,0.1,25.52-0.01,38.27,0.05
		c8.71,0.04,16.24,3.4,23.02,8.64c2.02,1.56,2.61,4.31,4.65,5.88c0,0.23,0.02,0.46,0.06,0.69c1.05,2.06-0.26,4.41,0.77,6.48
		c-0.37,14.91,1.12,29.79,0.85,44.71c1.06,1.49,0.97,3.04,0.28,4.63c-0.86,0.67-1.54,0.15-2.04-0.45
		c-5.69-6.85-13.81-8.81-21.9-10.18c-16.75-2.84-33.55-2.76-50.21,0.88c-4.53,0.99-8.92,2.6-12.66,5.54
		c-1.41,1.11-2.82,2.25-4.41,0.25c-0.24-0.44-0.39-0.91-0.47-1.4c-0.22-16.48-0.28-32.96,0.22-49.43
		C675.25,90.07,675.32,89.14,676,88.4z"/>
	<path class="st47" d="M766.37,145.9c0.02-1.57,0.03-3.15,0.05-4.72c1.57-1.97,0.41-4.28,0.79-6.4c0.25,0.01,0.5,0.02,0.75,0.02
		c0.03,9.28,0.04,18.56,0.11,27.84c0.01,1.41-0.47,2.94,0.68,4.18c1.42,1.39,1.14,3.2,1.15,4.9c0.05,6.13,0.01,12.26,0.03,18.39
		c0.03,97.01-0.08,194.01,0.05,291.02c0,1.87,0.03,3.73-0.03,5.6c-0.09,31.84,0,63.67-0.06,95.51c0,2.06,0.57,4.31-1.14,6.09
		c-0.24,0.05-0.48,0.09-0.73,0.13c-1.77-1.92-1.13-4.3-1.13-6.49c-0.04-37.97-0.03-75.93-0.03-113.9c0-97.25,0-194.5-0.01-291.75
		c0-2.39,0.18-4.8-0.25-7.17c-0.64-1.86-0.34-3.9-1.05-5.75c-0.65-4.19-0.2-8.41-0.38-12.61
		C765.42,149.13,764.22,147.11,766.37,145.9z"/>
	<path class="st29" d="M765.57,96.48c-1.4-2.02-0.49-4.32-0.77-6.48C766.39,92,765.28,94.32,765.57,96.48z"/>
	<path class="st12" d="M674.36,995.55c-12.52,0.03-25.04,0.07-37.56,0.1c-1.72,1.02-3.62,0.73-5.47,0.73
		c-177.16,0.01-354.32,0.06-531.47-0.06c-17.53-0.01-31.34-10.6-37.42-26.81c-2.92-7.78-4.07-15.86-4.07-24.21
		c0.05-233.28,0.04-466.56,0.04-699.83c0-7.47,0-7.47,7.31-7.47c3.73,0,7.47-0.09,11.2,0.05c1.27,0.05,3.25-0.52,2.96,2
		c-0.16,0.42-0.4,0.81-0.7,1.14c-0.28,0.29-0.6,0.56-0.94,0.79c-0.15,0.12-0.31,0.23-0.46,0.35c-0.26,0.25-0.52,0.51-0.76,0.78
		c-0.09,0.15-0.2,0.3-0.3,0.45c-0.08,0.16-0.17,0.32-0.25,0.48c-0.21,0.53-0.39,1.06-0.54,1.61c-0.47,1.43-0.53,2.94-0.97,4.38
		c-0.37,2.26-0.21,4.53-0.21,6.8c-0.01,223.39,0,446.79-0.04,670.18c0,3.61,0.39,7.16,0.8,10.73c0,1.49,0.01,2.99,0.56,4.42
		c0.12,0.49,0.2,0.99,0.25,1.49c1.79,8.3,4.66,16.06,10.37,22.59c6.69,7.66,15.27,11.28,25.18,12.14c2.38,0.21,4.8,0.1,7.2,0.1
		c177.55,0,355.1,0,532.65-0.02c2.25,0,4.53,0.34,6.74-0.41c1.3-0.91,1.18-2.3,1.21-3.62c0.03-1.47,0.01-2.93,0.01-4.4
		c0-284.49,0-568.99,0.03-853.48c0-4.98-0.1-9.76-3.16-14.11c-1.58-2.25-0.62-3.56,2.41-3.58c4.93-0.04,9.86-0.27,14.79,0.15
		c0.52,0.19,0.91,0.53,1.18,1.02c0.4,1.3,0.28,2.64,0.28,3.97c0.07,39.32,0.38,78.64,0.37,117.96
		c-0.05,231.15-0.03,462.3-0.02,693.46c-0.83,7.78-0.52,15.61-1.11,23.4c0,0.8,0,1.61,0,2.41c0.71,1.66,0.33,3.41,0.33,5.11
		c0.04,13.92,0.03,27.84,0,41.77c0,1.44,0.33,2.92-0.33,4.31C674.41,993.44,674.39,994.5,674.36,995.55z"/>
	<path class="st12" d="M764.82,947.59c0,15.28,0,30.56,0,45.52c-0.94,0.7-1.43,0.55-1.83,0.16c-4.5-4.49-10.24-6.52-16.21-8.02
		c-10.22-2.57-20.64-3.76-31.14-3.15c-9.78,0.57-19.51,1.75-28.77,5.41c-3.76,1.49-6.85,3.89-9.9,6.23
		c-0.31-0.18-0.44-0.22-0.54-0.31c-0.09-0.08-0.19-0.2-0.21-0.31c-0.07-0.66-0.16-1.32-0.16-1.97c-0.02-15.84-0.03-31.68-0.04-47.52
		c0.5-5.71,4.48-8.54,9.15-10.41c8.2-3.28,16.82-4.94,25.65-5.08c10.62-0.16,21.27-0.66,31.77,1.58c5.59,1.2,11.16,2.52,16.22,5.32
		C764.83,938.38,765.87,940.63,764.82,947.59z"/>
	<path class="st12" d="M676.03,937.14c-0.01-5.05-0.01-10.1-0.02-15.14c-0.85-2.28,0.48-3.81,1.84-5.3
		c4.99-5.46,11.93-6.72,18.6-8.43c7.38-1.89,15.04-2.22,22.54-2.26c5.48-0.03,11.13,0.04,16.65,1.13c3.2,0.63,4.64,2.2,4.63,5.38
		c-0.01,3.99,0.12,7.99-0.05,11.98c-0.17,3.91-1.43,4.57-5.35,4.24c-15.81-1.33-31.56-1.5-46.89,3.64c-2.92,0.98-5.71,2.18-8.1,4.15
		C678.7,937.5,677.55,938.37,676.03,937.14z"/>
	<path class="st48" d="M676.03,937.14c1.13,0.18,2.01-0.22,2.92-0.92c6.56-5,14.29-6.76,22.24-7.83c6.84-0.92,13.69-1.88,20.61-1.53
		c4.76,0.24,9.51,0.72,14.25,1.19c2.32,0.23,3-0.06,3.05-2.36c0.11-4.8,0.02-9.6,0.04-14.4c0.01-1.74-0.7-2.69-2.53-2.91
		c-2.37-0.29-4.69-0.84-7.11-0.8c-2.78,0.06-5.57,0.16-8.33-0.62c-2.1-0.59-4.21,0.58-6.3,0.54c-5.89-0.13-11.66,0.61-17.4,1.71
		c-4.97,0.95-9.86,2.28-14.35,4.62c-3.35,1.75-6.09,4.28-7.13,8.16c-1.23,1.01-0.78,2.41-0.8,3.67c-0.05,3.27,0,6.55-0.03,9.83
		c-0.01,1.14,0.32,2.39-0.75,3.3c0-7.73,0-15.46,0-23.19c0.34-0.25,0.67-0.22,0.98,0.04c0.38,0.67,0,1.44,0.26,2.15
		c0,0.5,0.62-0.09,0.1-0.01c-0.18,0.03-0.21-0.34-0.16-0.62c0.06-0.37,0.14-0.72,0.3-1.06c0.48-0.69,0.97-1.37,1.57-1.96
		c7.36-5.96,16.28-7.64,25.26-8.96c14.36-2.11,28.65-1.29,42.84,1.63c6.16,1.27,11.93,3.55,17.3,6.7c1.19-1.26,0.71-2.51,0.72-3.62
		c0.03-15.3,0.02-30.6,0.03-45.9c0-1.59-0.15-3.23,0.46-4.74c0.29-0.73,0.6-2.04,1.9-0.88c0.62,1.4,0.39,2.89,0.39,4.34
		c0.02,15.18,0.33,30.36-0.1,45.53c-0.28,9.81,0.01,19.63-0.43,29.42c-2.62,0.22-1.93-1.96-2.03-3.17
		c-0.28-3.56-0.03-7.15-0.15-10.72c-0.14-4.21-2.62-6.77-6.14-8.56c-1.7-0.87-2.82-0.67-2.84,1.55c-0.02,3.97-0.05,7.95,0.02,11.92
		c0.04,2.05,1.4,2.96,2.99,3.82c2.54,1.36,5.43,2.29,6.83,5.16c1.47,1.09,0.89,3.06,1.88,4.36c0,0.53,0,1.05,0,1.58
		c-1.54,0.93-0.1,3.05-1.59,4c-0.01-0.4-0.09-0.81-0.03-1.2c0.87-5.12-2.28-7.96-6.07-10.15c-5.11-2.96-10.83-4.24-16.57-5.46
		c-11.32-2.41-22.79-1.81-34.19-1.42c-7.94,0.27-15.82,1.95-23.18,5.17c-4.07,1.78-7.42,4.55-8.76,9.11
		C675.74,941.47,676.65,939.31,676.03,937.14z"/>
	<path class="st48" d="M674.44,992.39c0-17.06,0-34.12,0-51.18c1.09,0.92,0.75,2.19,0.75,3.34c0.02,14.83,0.02,29.67,0,44.5
		C675.18,990.2,675.52,991.46,674.44,992.39z"/>
	<path class="st49" d="M78.39,241.18c0.34-0.57,0.67-1.14,0.99-1.67c-0.08-0.51-0.37-0.71-0.8-0.71c-5.47,0-10.93-0.05-16.4,0.01
		c-2.78,0.03-2.84,0.16-2.95,2.99c-0.04,0.93-0.01,1.87-0.01,2.8c0,234.8-0.02,469.59,0.07,704.39c0,10.8,2.55,21.25,9.02,30.08
		c6.06,8.27,14.17,13.91,24.6,15.76c3.3,0.59,6.58,0.77,9.91,0.77c176.26-0.01,352.53-0.01,528.79,0c1.73,0,3.47,0.03,5.2,0.05
		c-0.54,1.06-1.41,1.55-2.59,1.54c-1.2-0.01-2.4,0-3.6,0c-176.26,0-352.53-0.02-528.79,0.07c-7.91,0-15.12-1.95-22-5.52
		c-6.8-3.53-11.58-9.08-15.18-15.71c-3.45-6.34-5.5-13.07-6.4-20.29c-0.55-4.4-0.62-8.74-0.62-13.11
		c-0.02-233.19-0.02-466.39-0.01-699.58c0-1.98-0.35-4.02,0.79-5.85c6.14,0.01,12.27,0.01,18.41,0.02c0.26,0.28,0.52,0.29,0.78,0
		c61.44,0,122.89-0.03,184.33,0.02c8.27,0.01,16.37-1.09,24.43-2.81c12.51-2.66,24.39-7.07,36.05-12.32
		c11.79-5.3,22.94-11.65,34.03-18.21c12.81-7.58,25.08-15.98,37.28-24.45c11.75-8.15,23-17.04,34.67-25.32
		c10.38-7.37,20.37-15.27,30.77-22.63c5.08-3.6,10.49-6.68,15.4-10.57c2.87-2.27,6.38-3.79,9.61-5.63
		c7.96-4.54,16.02-8.92,24.77-11.88c4.27-1.45,8.51-2.97,12.95-3.84c4.29-0.84,8.59-1.57,12.98-1.57c46.52,0,93.03,0,139.55,0
		c0.43,0.55,0.42,1.09-0.03,1.63c-5.86,0-11.71,0-17.71,0c-0.06,2.81,2.59,4.03,3.13,6.42c0.4,1.8,1.14,3.5,1.02,5.41
		c-0.04,0.66-0.01,1.33-0.01,2c0,286.35,0,572.69,0,859.04c0,1.73-0.02,3.47-0.01,5.2c0.01,1.1-0.44,1.78-1.59,1.88
		c-0.71-0.78-1.01-1.72-1.13-2.74c-0.18-2.93-0.09-5.86-0.09-8.79c-0.01-283.18,0-566.35-0.01-849.53c0-2.93,0.2-5.87-0.41-8.77
		c-1.18-5.69-4.83-8.88-10.6-8.89c-37.46-0.06-74.93-0.2-112.39,0.07c-12.23,0.09-23.5,4.59-34.35,9.85
		c-18.91,9.17-36.08,21.15-53.1,33.35c-30.88,22.12-60.77,45.66-93.58,64.98c-20.87,12.29-42.47,22.93-66.35,28.15
		c-7.43,1.62-14.92,2.79-22.57,2.79c-57.06-0.03-114.12,0.01-171.19-0.07c-4.89-0.01-9.55,0.3-13.7,3.16
		c-0.71,0.18-1.39,0.19-2-0.28C77.3,242.04,77.83,241.61,78.39,241.18z"/>
	<path class="st50" d="M34.39,966.8c-0.56-0.45-0.78-1.06-0.78-1.75c-0.01-0.93-0.01-1.87-0.01-2.8c0-290.48,0-580.97,0-871.45
		c0.83-0.8,1.06-1.6,0-2.4c0.97-2.02,0.22-4.47,1.6-6.4c1.47,8.86,0.77,17.79,0.77,26.69C36.01,392.76,36,676.84,36,960.91
		c0,1.33-0.02,2.67-0.01,4C36,966.01,35.51,966.67,34.39,966.8z"/>
	<path class="st25" d="M38.4,983.6c-0.65-0.34-0.79-0.94-0.8-1.6C38.25,982.34,38.39,982.94,38.4,983.6z"/>
	<path class="st24" d="M33.6,88.4c0.56-0.11,1.31-0.69,1.52,0.29c0.24,1.13-0.14,2.04-1.52,2.1C33.61,90,33.61,89.2,33.6,88.4z"/>
	<path class="st51" d="M674.37,99.63c0.01-0.54,0.02-1.08,0.03-1.63c0-2.93,0.01-5.86,0-8.79c0-1.36,0.81-1.05,1.6-0.82
		c-0.01,17.6-0.02,35.2-0.02,52.8c-0.57,0.26-0.95,0.08-1.12-0.53c-0.11-12.39,0-24.78-0.07-37.17c-0.01-1.3,0.38-2.67-0.41-3.9
		C674.38,99.61,674.37,99.63,674.37,99.63z"/>
	<path class="st24" d="M77.59,237.21c-0.26,0.45-0.52,0.45-0.78,0C77.07,237.21,77.33,237.21,77.59,237.21z"/>
	<path class="st52" d="M127.19,65.69c7.6-5.98,16.2-9.6,25.79-10.86c5-0.66,10.02-1.39,15.05-0.18c-0.08,0.11-0.15,0.3-0.24,0.31
		c-0.38,0.05-0.44,0.26-0.12,0.3c9.54,1.04,16.95,6.06,23.36,12.73c8.07,8.4,12.24,18.35,12.53,30.21
		c0.37,14.93-4.96,27.08-16.19,36.65c-8.28,7.05-17.84,10.67-28.94,10.7c-18.26,0.05-31.9-7.86-40.82-23.42
		c-7.55-13.17-8.01-27.11-1.88-41.12c0.75-1.71,1.61-3.37,2.51-5c0.19-0.35,0.41-0.69,0.64-1.01c0.11-0.16,0.23-0.31,0.35-0.47
		c0.23-0.3,0.47-0.59,0.72-0.88c0.65-0.89,1.44-1.66,2.15-2.5C123.62,69.17,125.39,67.41,127.19,65.69z"/>
	<path class="st53" d="M122.39,71.57c-0.55,0.82-1.1,1.64-1.64,2.45c-0.25,0.26-0.49,0.52-0.74,0.79l0,0
		c-0.3,0.25-0.55,0.54-0.77,0.86c-0.31,1.89-1.46,3.41-2.25,5.09c-6.05,12.87-5.83,25.92,0.2,38.49
		c6.18,12.89,16.54,21.32,30.75,24.33c13.3,2.81,25.78,0.43,36.71-7.68c9.53-7.07,15.92-16.72,17.49-28.49
		c2.33-17.52-2.76-32.5-17.37-43.65c-5.78-4.41-12.21-6.82-19.15-8.47c0.64-0.87,1.66-0.29,2.42-0.63c16.62,1.38,30,9,40.23,21.88
		c27.86,35.08,7.88,87.43-36.26,94.81c-37.65,6.29-68.91-22.99-68.93-57.75c-0.01-13.7,4.14-25.91,12.42-36.76
		c0.8-1.05,1.79-1.95,2.69-2.92c0.46-0.14,0.82-0.38,0.9-0.9l-0.07,0.06c0.49-0.09,0.78-0.37,0.84-0.87l-0.05,0.05
		c0.5-0.06,0.78-0.36,0.88-0.84l-0.06,0.06c0.47-0.1,0.78-0.36,0.87-0.85l-0.02-0.01C122.25,70.47,122.53,70.82,122.39,71.57z"/>
	<path class="st54" d="M122.39,71.57c-0.31-0.31-0.61-0.63-0.92-0.94c1.54-2.07,3.49-3.67,5.72-4.94
		C125.96,67.95,124.26,69.82,122.39,71.57z"/>
	<path class="st54" d="M119.08,73.01c-0.08,0.52-0.39,0.82-0.9,0.9C118.31,73.44,118.59,73.12,119.08,73.01z"/>
	<path class="st54" d="M119.85,72.2c-0.04,0.52-0.33,0.8-0.84,0.87C119.1,72.6,119.37,72.3,119.85,72.2z"/>
	<path class="st54" d="M120.68,71.42c-0.07,0.51-0.36,0.79-0.88,0.84C119.9,71.77,120.21,71.51,120.68,71.42z"/>
	<path class="st54" d="M121.49,70.63c-0.07,0.5-0.36,0.79-0.87,0.85C120.72,71.01,121.01,70.73,121.49,70.63z"/>
	<path class="st55" d="M364.67,62c-0.52,1.24-1.3,2.37-2.83,2.25c-1.47-0.12-1.89-1.28-1.77-2.6c0.14-1.43,1.39-2.25,2.87-1.94
		C364.14,59.95,364.75,60.68,364.67,62z"/>
	<path class="st38" d="M357.59,80.5c0.21,0.23,0.43,0.45,0.64,0.68C358.02,80.96,357.81,80.73,357.59,80.5z"/>
	<path class="st39" d="M384.01,60.36c-0.39-0.12-0.64-0.37-0.71-0.78C383.53,59.84,383.77,60.1,384.01,60.36z"/>
	<path class="st39" d="M383.22,59.5c-0.41-0.08-0.65-0.33-0.74-0.73C382.73,59.02,382.98,59.26,383.22,59.5z"/>
	<path class="st39" d="M382.43,58.72c-0.41-0.08-0.66-0.33-0.76-0.73C381.92,58.23,382.18,58.47,382.43,58.72z"/>
	<path class="st56" d="M247.52,64.29c-1.41-0.25-1.98-1.17-1.89-2.49c0.09-1.35,0.83-2.22,2.27-2.04c1.22,0.15,1.71,1.06,1.7,2.23
		C249.58,63.35,248.94,64.18,247.52,64.29z"/>
	<path class="st35" d="M267.2,57.99c-0.27-0.26-0.54-0.52-0.81-0.78C266.66,57.47,266.93,57.73,267.2,57.99z"/>
	<path class="st35" d="M266.39,57.21c-0.28-0.26-0.56-0.52-0.85-0.78C265.83,56.69,266.11,56.95,266.39,57.21z"/>
	<path class="st35" d="M264.79,56.36c-0.28-0.25-0.55-0.49-0.83-0.74C264.24,55.87,264.51,56.12,264.79,56.36z"/>
	<path class="st57" d="M308.7,61.79c-0.36,1.31-1.16,2.39-2.63,2.46c-1.48,0.07-2.04-1.01-2.01-2.37c0.04-1.49,1.14-2.41,2.65-2.22
		C307.9,59.8,308.63,60.43,308.7,61.79z"/>
	<path class="st58" d="M311.17,54.76c0.01,0.27,0.03,0.54,0.04,0.81c-0.63,0.03-1.28,0.21-1.81-0.34
		C309.88,54.63,310.55,54.78,311.17,54.76z"/>
	<path class="st37" d="M324.79,57.21c-0.31-0.25-0.61-0.5-0.92-0.75C324.32,56.54,324.62,56.8,324.79,57.21z"/>
	<path class="st37" d="M323.18,56.26c-0.29-0.21-0.57-0.42-0.86-0.63C322.61,55.84,322.89,56.05,323.18,56.26z"/>
	<path class="st24" d="M1366.41,284.39c0.85,0.68,0.77,1.63,0.77,2.56c0,1.87,0,3.73,0,5.6c0,211.64,0,423.28,0,634.93
		c0,10.47-2.1,20.55-5.93,30.25c-1.57,3.97-4.21,7.35-6.86,10.68c-1.69,1.23-2.96,1.17-3.33-1.19c-0.33-2.12-0.17-4.26-0.17-6.39
		c-0.01-214.1-0.05-428.2,0.15-642.3c0.01-8.93-3.89-13.8-11.26-17.17c-1.42-0.65-2.85-0.61-4.3-0.61
		c-8.53-0.04-17.07,0.24-25.59-0.06c-44.47-1.6-88.95-0.06-133.41-0.91c-14.96-0.29-29.96-1.15-44.86-3.55
		c-18.51-2.98-36.34-7.83-53.38-15.64c-14.57-6.67-28-15.16-40.58-25.05c-6.04-4.75-12.31-9.22-17.99-14.39
		c-18.91-17.94-38.48-35.16-60.24-49.57c-16.1-10.65-33.18-19.62-52.18-24.27c-6.02-1.87-12.13-2.64-18.45-2.62
		c-33.24,0.12-66.49,0.06-99.73,0.06c-1.46,0-2.93-0.06-4.39-0.01c-3.1,0.1-4.8-0.96-4.29-4.43c0.34-2.34-0.35-4.77,0.41-7.1
		c2.89-5.1,6.66-8.82,13.05-8.82c35.32,0.02,70.65,0.1,105.97-0.05c8.18-0.03,16.09,1.29,24.05,2.8c7.86,1.49,15.44,4.04,22.67,7.23
		c10.67,4.71,20.83,10.54,30.21,17.59c5.3,3.98,10.65,7.9,15.82,12.04c4.35,3.48,8.5,7.21,12.69,10.89
		c6.38,5.61,12.72,11.27,19.06,16.92c3.75,3.35,7.44,6.77,11.19,10.11c6.05,5.38,12.3,10.52,18.84,15.29
		c4.5,3.28,8.82,6.83,13.46,9.89c9.96,6.55,20.26,12.51,31.16,17.42c7.03,3.17,14.32,5.56,21.58,8.09
		c7.68,2.68,15.6,4.37,23.49,5.91c7.5,1.47,15.17,2.26,22.85,2.83c19.17,1.41,38.35-0.05,57.5,0.79
		c32.23,1.42,64.46,0.26,96.69,0.74c1.29,0.02,2.7-0.41,3.78,0.74c-3.42,1.69-7.09,0.88-10.59,0.73c-18.19-0.77-36.38,0-50.05-0.3
		c12.15-0.01,28.81-0.27,45.46,0.07c17.31,0.36,34.62,0.9,51.94,0.78c4.18-0.03,4.22,0.07,4.03,4.21c-0.09,1.86-0.03,3.73-0.03,5.6
		c0,209.98,0,419.95,0,629.93c0-210.26,0-420.53,0.01-630.79C1365.61,290.65,1365.43,287.47,1366.41,284.39z"/>
	<path class="st59" d="M1019.2,239.6c2.33,1.1,3.7,3.36,5.7,4.81c9.29,6.75,17.9,14.41,27.59,20.61c4.01,2.56,7.99,5.17,12.23,7.37
		c3.14,1.63,6.17,3.44,9.22,5.23c3.04,1.79,6.49,2.91,9.81,4.2c6.43,2.5,12.72,5.39,19.47,7.01c6.01,1.44,11.85,3.46,18.05,4.36
		c4.94,0.72,9.95,1.48,14.81,2.68c3.4,0.84,6.88,0.79,10.25,1.08c5,0.43,10.03,0.96,15.07,1.14c43.69,1.57,87.39,0.09,131.08,0.85
		c14.83,0.26,29.66,0.72,44.49,0.6c2.83-0.02,5.05,1.44,6.88,2.73c4.21,2.98,8.26,6.09,8.26,12.54
		c-0.12,216.37-0.1,432.74-0.1,649.11c0,0.93,0.1,1.88-0.02,2.8c-0.29,2.18,1.01,1.98,2.41,1.7c-0.54,0.79-1.07,1.58-1.61,2.37
		c-0.32,3.15-3.25,4.06-5.06,5.93c-0.57,0.46-1.19,0.8-1.93,0.9c-1.23-0.06-2.47,0.46-3.7-0.01c-1.12-0.81-0.56-1.57,0.08-2.32
		c2.37-1.72,5.28-2.65,7.2-5.01c0.47-0.95,0.11-1.91-0.01-2.87c-0.31-2.8-0.2-5.61-0.2-8.4c-0.01-213.07-0.01-426.13-0.01-639.2
		c0-12.01-5.36-17.14-17.55-17.38c-50.65-1-101.31-0.45-151.96-0.91c-22.51-0.2-44.95-1.8-67.02-7.18
		c-25.79-6.28-49.19-17.31-70.52-32.98c-7.53-5.53-14.76-11.42-21.83-17.52c-1.2-1.04-2.56-1.97-2.84-3.72
		C1017.76,239,1018.45,239.21,1019.2,239.6z"/>
	<path class="st60" d="M780.78,153.19c0.01,2.66,0.05,5.32,0.01,7.99c-0.02,1.64,0.61,2.5,2.34,2.43c1.06-0.05,2.13,0,3.19,0
		c35.4,0,70.81,0.02,106.21-0.02c5.66-0.01,11.03,1.18,16.26,3.22c0.21,0.58,0.03,1-0.53,1.26c-1.04,0.4-2.15,0.41-3.14,0.04
		c-5.67-2.12-11.56-1.6-17.41-1.6c-32.25-0.02-64.51-0.01-96.76-0.01c-1.2,0-2.4-0.02-3.6,0.01c-4.94,0.09-5.55,0.72-4.94,5.7
		c0.37,3.05,0.48,6.11,0.48,9.17c0,195.93-0.01,391.86,0.01,587.78c0,0.8,0.03,1.6-0.06,2.4c-0.14,1.33-0.11,2.66-0.11,3.99
		c0,65.8,0,131.6,0,197.41c0,1.47,0,2.93,0.1,4.39c0,0.27-0.01,0.53-0.01,0.8c-0.12,0.58-0.48,0.91-1.07,0.99
		c-1-0.1-1.32-0.75-1.32-1.65c-0.01-1.2-0.01-2.4-0.01-3.6c0-115.99,0-231.98-0.02-347.97c0-1.57,0.41-3.2-0.39-4.71
		c-0.01-73.28,0.55-146.56-0.25-219.83c-0.43-38.88-0.25-77.75-0.49-116.62c-0.24-38.77-0.04-77.54-0.08-116.31
		c0-4.65,1.25-9.21,0.9-13.89C780.05,154.11,780.54,153.64,780.78,153.19z"/>
	<path class="st61" d="M1366.41,284.39c0,201.45-0.01,402.9-0.01,604.35c0,12.67,0.01,25.33-0.02,38c0,1.43,0.37,2.93-0.41,4.29
		c-1.34,0.11-1.1-0.89-1.14-1.61c-0.06-1.06-0.02-2.13-0.02-3.2c0-211.18,0-422.37,0.01-633.55c0-1.72-0.19-3.43,0.38-5.15
		c0.45-1.32-0.16-1.78-1.67-1.75c-9.73,0.16-19.48,0.63-29.17,0.08c-6.37-0.36-12.76-0.19-19.1-0.71
		c-19.16-1.56-38.34-0.28-57.5-0.73c-0.78-0.02-1.56,0-2.33,0c0-0.27,0-0.54,0-0.82c23.14,0,46.28,0,69.41,0
		c2.12,0,4.24,0.01,6.36,0.01c4.18,0.9,8.42,0.25,12.63,0.4C1351.35,284.28,1358.89,283.54,1366.41,284.39L1366.41,284.39z"/>
	<path class="st62" d="M778.4,621.2c0,49.18-0.52,98.37,0.22,147.54c0.38,24.89,0.36,49.78,0.54,74.67
		c0.18,24.63,0.05,49.27,0.02,73.9c0,1.38,0.43,2.87-0.68,4.46c-1.35-1.34-0.87-2.84-0.88-4.14c-0.04-13.73-0.02-27.46-0.02-41.18
		c0-6.93,0.26-13.87-0.04-20.79c-1.66-38.34-0.48-76.7-0.71-115.06c-0.23-38.25-0.05-76.5-0.05-114.76c0-1.59,0.11-3.16-0.98-4.57
		c-1.07-1.37-0.6-3.09-0.6-4.66c-0.02-23.86-0.02-47.72-0.02-71.57c0-47.85-0.01-95.7,0.05-143.55c0-1.49-1.08-3.65,1.55-4.3
		c0,72.84,0,145.67,0,218.51c0,1.33,0.01,2.66,0.05,3.99C776.88,620.68,777.54,621.06,778.4,621.2z"/>
	<path class="st63" d="M780,621.2c0.72,0.55,0.8,1.33,0.8,2.15c0,1.2,0,2.4,0,3.6c0,115.45,0,230.91,0,346.36
		c0,1.33,0.01,2.67,0.05,4c0.03,0.98,0.69,1.36,1.55,1.5c1.06-0.99,2.39-1.08,3.74-1.11c1.33-0.03,2.67-0.02,4-0.02
		c179.13,0,358.27,0,537.4,0.04c2.58,0,5.36-0.81,7.7,1.11c-0.68,0.83-1.63,0.78-2.57,0.78c-1.87,0.01-3.73,0.01-5.6,0.01
		c-180.51,0-361.02,0-541.54,0c-6.08,0-5.52,0.6-5.52-5.65C780.01,856.37,780,738.79,780,621.2z"/>
	<path class="st62" d="M776.8,397.2c-0.04-1.73-0.05-3.46-0.12-5.18c-0.02-0.6-0.47-0.96-1.05-0.99c-0.59-0.03-1.05,0.34-1.1,0.92
		c-0.1,1.19-0.13,2.39-0.13,3.58c-0.01,16.24,0.01,32.48-0.03,48.73c0,1.4,0.54,2.96-0.78,4.14c-0.17-0.2-0.35-0.39-0.53-0.58
		c-0.67-1.21-0.73-2.55-0.71-3.88c0.27-20.35,0.03-40.7,0.12-61.05c0.01-1.45-0.12-2.94,0.58-4.31c0.18-0.19,0.35-0.39,0.53-0.58
		c1.31-1.18,0.77-2.75,0.78-4.14c0.04-16.25,0.02-32.5,0.03-48.75c0-1.82-0.3-3.65,1.15-5.28c0.91-1.02,0.42-2.57,0.42-3.88
		c0.02-22.65-0.68-45.32,0.21-67.93c0.9-22.89,0.14-45.77,0.6-68.64c0.05-2.66-0.22-5.26-0.69-7.9c-0.65-3.68,0.15-7.39,0.69-11.07
		c1.16-0.9,0.69-2.19,0.8-3.34c0.09-0.88-0.18-1.91,1.28-2.47c0.58,1.67,0.58,3.4,0.12,4.92c-0.69,2.24-0.6,4.47-0.6,6.72
		c-0.01,75.16-0.01,150.32-0.01,225.48c0,1.33-0.01,2.66-0.05,4C778.32,396.68,777.66,397.06,776.8,397.2z"/>
	<path class="st62" d="M768.76,588.33c0.02-33.84,0.05-67.68,0.07-101.52c1.96,0.32,1.41,1.92,1.55,3.13
		c0.51,4.37,0.41,8.77,0.41,13.16c0,26.65,0,53.31-0.02,79.96c0,1.32,0.28,2.66-0.21,3.96c1.2-45.85-0.85-91.71,0.03-137.56
		c0.01-0.45,0.48-0.9,2.05-1.1c0.34,7.39,0.11,14.74,0.15,22.07c0.04,7.33,0.01,14.66,0.01,21.99c0,0.26,0,0.52,0,0.78
		c0,30.11,0.27,60.22-0.16,90.32c-0.14,9.68-0.03,19.42-0.77,29.07c-1.35,17.69-0.21,35.38-0.67,53.06
		c-0.02,0.66-0.09,1.4,0.16,1.97c2.26,5.11,1.7,10.37,0.83,15.63c-0.21,1.24,0.28,2.07,1.07,2.82c1.4,1.31,1.11,3.2,1.68,4.79
		c0.08,0.22-0.33,0.69-0.61,0.93c-0.36,0.3-0.76,0.07-1.06-0.19c-0.3-0.26-0.76-0.57-0.77-0.88c-0.12-2.8-2.14-5.21-2.03-7.92
		c0.38-9.85-1.02-19.63-0.93-29.47c0.18-19.98,0.05-39.97,0.06-59.95C769.6,591.64,769.76,589.89,768.76,588.33z"/>
	<path class="st62" d="M772,160.4c1.42,0.14,1.49,1.14,1.63,2.28c0.32,2.58-0.87,4.94-0.86,7.49c0.07,12.65-0.5,25.33,0.21,37.94
		c0.5,8.9-0.04,17.82,0.72,26.67c1.43,16.75,1.12,33.53,0.51,50.23c-1.14,31-0.12,61.99-0.61,92.99c-0.65,3.66-0.77,7.37-0.78,11.07
		c-0.05,15.98-0.01,31.97-0.04,47.95c0,1.65,0.37,3.43-0.97,5.18c-1.76-1.1-1.7-2.7-1.7-4.19c-0.05-19.05-0.65-38.12,0.13-57.14
		c1.22-29.56,1.07-59.12,0.41-88.64c-0.9-40.21-0.17-80.41-0.57-120.61c-0.04-3.61,0.68-7.12,1.39-10.63
		C771.64,160.79,771.82,160.6,772,160.4z"/>
	<path class="st64" d="M1335.24,978.82c-37.04-0.01-74.08-0.02-111.13-0.02c-147.24,0-294.47,0-441.71,0c0-0.27,0-0.54,0.01-0.81
		c1.13-1.18,2.63-1.18,4.09-1.24c2-0.09,4-0.04,6-0.04c176.46,0,352.91-0.01,529.37,0.02c5.74,0,11.46-0.03,17.08-1.42
		c1.16-0.29,2.37-0.52,3.45,0.32c-0.08,0.53-0.89,1.06,0.01,1.58c0.19,0.15,0.29,0.33,0.28,0.52c-0.01,0.21-0.03,0.31-0.08,0.31
		c-0.23,0.24-0.5,0.41-0.81,0.51c-0.59,0.21-1.27-0.27-1.83,0.22C1338.4,978.79,1336.82,978.81,1335.24,978.82z"/>
	<path class="st65" d="M767.2,168.4c1.38,1.32,0.77,3.02,0.77,4.55c0.04,24.93,0.03,49.86,0.03,74.79c0,112.11,0,224.22,0,336.34
		c0,1.47,0.02,2.93,0.03,4.4c-0.01,0.78-0.02,1.56-0.03,2.34c-1.87-0.22-1.73-1.75-1.86-3c-0.16-1.59-0.07-3.19-0.07-4.79
		c-0.06-32.07,0.12-64.13-0.1-96.2c-0.19-2.66-0.07-5.33-0.07-7.99c-0.01-88.21,0-176.41-0.01-264.62c0-0.8-0.03-1.6,0.03-2.4
		c0.36-12.45,0.03-24.9,0.16-37.35c0.02-1.84-0.26-3.72,0.58-5.48C766.84,168.78,767.02,168.59,767.2,168.4z"/>
	<path class="st66" d="M764.79,937.99c0.23-0.32,0.65-0.63,0.66-0.95c0.06-5.44,0.44-10.92-0.1-16.3c-0.23-2.32,0.3-4.41,0.29-6.61
		c-0.07-18.73-0.06-37.46-0.07-56.18c-1.45-1.52-1.23-3.46-1.23-5.29c-0.03-37.52-0.04-75.05,0-112.57c0-1.83-0.2-3.78,1.33-5.25
		c1.66-0.34,1.4,1.17,1.88,1.96c-0.13,8.42,0.48,16.85-0.32,25.26c-0.03,48.99,0.14,97.98-0.23,146.97
		c-0.08,10.98-0.38,21.98-0.58,32.98C765.12,940.97,764.76,939.56,764.79,937.99L764.79,937.99z"/>
	<path class="st67" d="M767.23,762.06c-0.02-8.56-0.03-17.12-0.05-25.69c-0.95-2.25-1.13-4.6-1.12-7.02
		c0.03-19.18,0.01-38.36,0.02-57.54c0-2,0.03-4-0.62-5.93c-0.39-1.97-0.35-3.97-0.35-5.97c-0.01-55.38-0.02-110.75,0.06-166.13
		c0-2.41-1.18-5.43,2-7.05c0.01,33.18,0.01,66.35,0.06,99.53c0,1.52-0.61,3.23,0.78,4.54c-0.01,48.36-0.03,96.72-0.04,145.08
		c0,7.46,0,14.92-0.03,22.38C767.92,759.55,768.31,760.95,767.23,762.06z"/>
	<path class="st62" d="M778.52,621.09c0-50.21,0-100.53,0-151.28c0.26,0.94-0.15,0.14,0.35,0.32c0.1,0.04,0.23,0.2,0.23,0.31
		c0.04,49.4,0.07,98.81,0.09,148.21c0,0.53-0.04,1.06-0.13,1.58c-0.04,0.24-0.24,0.46-0.38,0.68
		C778.61,621.03,778.5,621.11,778.52,621.09z"/>
	<path class="st62" d="M768.8,190c-0.01-7.72-0.03-15.44-0.04-23.16c1.36-1.15,0.82-2.72,0.82-4.11c0.05-7.83,0.01-15.67,0.03-23.5
		c0-1.3-0.25-2.64,0.36-3.86c1.4-0.07,1.17,0.91,1.2,1.63c0.06,1.33,0.1,2.66,0.01,3.98c-0.43,6.5,0.65,12.94,0.81,19.41v0
		c-1.31,3.14-1.14,6.5-1.17,9.77c-0.12,12.51-0.03,25.02-0.07,37.53c0,1.28,0.42,2.66-1.09,4.69
		C768.52,204.44,769.92,197.13,768.8,190z"/>
	<path class="st12" d="M1339.98,978.78c0.37-0.63,0.96-0.77,1.62-0.78c1.91,0.35,3.81,0.06,5.64-0.38c1.31-0.32,0.08-0.83-0.12-1.24
		c1.37-2.39,4.45-3.05,5.66-5.6c0.78,2.87,2.26,1.46,4.03-0.06c-0.53,3.31-2.52,4.89-4,6.74c-0.31,0.39-1.01,0.48-1.3,0.88
		c-1.4,1.86-2.87,3.03-5.54,3C1343.42,981.3,1341.76,980.12,1339.98,978.78z"/>
	<path class="st62" d="M773.6,448.4c0,13.56,0.02,27.11-0.02,40.67c0,1.4,0.53,2.96-0.78,4.13c-0.78-2.32-0.35-4.71-0.36-7.06
		c-0.05-11.37-0.06-22.75,0.04-34.12C772.48,450.83,771.39,449.01,773.6,448.4z"/>
	<path class="st24" d="M1366.41,284.39c-10.36,0-20.72,0.03-31.08-0.02c-1.39-0.01-2.96,0.53-4.13-0.78
		c10.49,0,20.99-0.02,31.48,0.01C1363.95,283.61,1365.38,283.15,1366.41,284.39z"/>
	<path class="st62" d="M776.8,160.84c-1.74-2.35-3.27-10.13-2.78-14.11c0.51,2.77,0.26,4.99,2.38,6.3c0.76,0.47,0.38,1.73,0.39,2.64
		C776.82,157.24,776.8,158.82,776.8,160.84z"/>
	<path class="st62" d="M774.03,172.28c-0.49-1.32-0.59-2.57-0.04-4.31C774.56,169.74,774.43,171.04,774.03,172.28z"/>
	<path class="st68" d="M674.38,99.61c1.34,1.16,0.78,2.73,0.79,4.12c0.05,12.49,0.03,24.98,0.04,37.47
		c0.72,0.95,0.21,1.89,0.36,2.71c0.53-0.31-0.35-1.45,0.44-1.92c0.6,0.24,1.24,0.67,1.84,0.09c5.41-5.35,12.49-6.65,19.51-8.1
		c11.57-2.4,23.3-1.81,34.95-1.42c8.06,0.27,15.99,2.21,23.58,5.07c4.32,1.63,7.7,4.62,10.48,8.28c-1.01,1.38-0.12,2.76,0,4.14
		c-2,0.22-2.3-1.48-2.92-2.7c-1.27-2.51-3.46-3.96-5.76-5.32c-1.82-1.07-3.05-0.92-3.06,1.57c-0.01,3.98-0.06,7.96,0.03,11.94
		c0.03,1.48,0.7,2.52,2.08,3.09c2.98,1.24,5.63,2.97,7.81,5.36c0.92,1,1.32,0,1.89-0.39c1.38,1.42,0.51,3.2,0.76,4.8c0,0,0,0,0,0
		c-0.84,0.72,0.12,2.22-1.19,2.74c-1.5,0.17-2.17-0.89-2.67-1.97c-1.44-3.11-4.09-4.77-7.02-6.2c-5.33-2.62-11.05-3.92-16.84-4.76
		c-16.33-2.37-32.61-2.36-48.66,2.09c-5.2,1.44-10.13,3.42-13.05,8.43c-0.64,1-0.86,2.15-1.24,3.25c-0.34,2.53-0.18,5.07-0.18,7.6
		c-0.01,242.77,0,485.55-0.05,728.32c0,2.58,0.81,5.37-1.11,7.71c-0.25,0-0.5,0-0.75,0c-0.02-2.27-0.05-4.53-0.05-6.8
		c0-246.26,0.01-492.53,0.01-738.79C674.39,146.54,674.39,123.08,674.38,99.61z"/>
	<path class="st69" d="M676.01,141.99c-0.17,0.82,0.33,1.76-0.47,2.5c-0.65-1.07-0.21-2.21-0.33-3.29c0.25,0,0.51,0,0.76,0
		C676.01,141.46,676.02,141.72,676.01,141.99z"/>
	<path class="st12" d="M773.6,448.4c-1.31,1.18-0.77,2.74-0.78,4.13c-0.04,13.56-0.02,27.11-0.02,40.67
		c-1.31-1.18-0.77-2.75-0.78-4.14c-0.04-11.99-0.01-23.98-0.04-35.97c0-1.28,0.38-2.63-0.7-4.45c0,46.9,0,93.21,0,139.52
		c-0.29,0.02-0.59,0.05-0.88,0.07c0-1.27,0-2.55,0-3.82c0-28.91,0.01-57.82-0.01-86.73c0-3.68-0.43-7.32-1.56-10.85
		c-0.01-35.42-0.01-70.84-0.02-106.26c-0.01-62.72-0.03-125.44-0.04-188.16c0-0.8,0.02-1.6,0.03-2.4c1.23,1.04,0.77,2.46,0.79,3.73
		c0.05,4.65,0,9.3,0.04,13.95c0.01,1.03-0.33,2.12,0.38,3.13c0.77-1.26,0.38-2.61,0.38-3.88c0.03-14.22,0-28.44,0.06-42.66
		c0.01-1.4-0.88-3.38,1.56-3.88c-1.77,40.32-1.1,80.66-0.55,120.98c0.41,29.94,0.85,59.89,0.32,89.81
		c-0.39,21.95-0.25,43.89-0.57,65.84c-0.02,1.31,0,2.62,0,3.94c0.27,0.02,0.53,0.04,0.8,0.06c0-1.15,0-2.29,0-3.44
		c0-16.25-0.03-32.5,0.02-48.75c0.01-3.67,0.38-7.32,1.58-10.83C773.6,401.47,773.6,424.93,773.6,448.4z"/>
	<path class="st70" d="M766.44,163.59c-0.13,0.87,0.14,1.82-0.51,2.88c-1.67-1.5-3.12-3.02-4.8-4.25c-1.59-1.16-3.21-2.33-5.22-2.8
		c-1.82-0.42-2.42-1.68-2.37-3.55c0.11-4.38-0.01-8.76,0.04-13.14c0.04-3.49,0.5-3.76,3.73-2.07c3.43,1.8,6.78,3.73,7.7,7.99
		c0.14,0.67,0.78,1.05,1.36,1.38C766.39,154.56,766.42,159.08,766.44,163.59z"/>
	<path class="st71" d="M74.41,938.8c-1.64-16.61-0.73-33.27-0.73-49.9c-0.08-211.55-0.05-423.11-0.04-634.66
		c0-1.98-0.35-4.02,0.75-5.86c1.87,0.23,1.75,1.75,1.86,3.01c0.18,1.99,0.08,4,0.08,6c0,225.57,0,451.14,0.01,676.7
		c0,0.91,0.03,1.82,0.29,2.7c0.23,0.98,0.3,1.99,0.36,3c0.06,0.75,0.18,1.48,0.32,2.22c0.07,0.57,0,1.11-0.34,1.59
		c-0.94,0.49-1.31-0.26-1.78-0.81c-0.01-0.26-0.02-0.52-0.01-0.78C74.36,941.09,75.29,939.73,74.41,938.8z"/>
	<path class="st72" d="M75.2,942.8c0.53,0.27,1.07,0.53,1.6,0.8c2.14,1.01,2.2,3.2,2.8,5.05c4.11,12.81,11.5,22.57,25.05,26.25
		c5.93,1.61,12.1,1.83,18.25,1.83c118.8,0,237.59,0.01,356.39,0c58.66,0,117.33,0.04,175.99-0.03c1.33,0,2.68-0.17,3.92,0.49
		c0,0.8,0.01,1.59,0.01,2.39c-1.2,0.01-2.4,0.02-3.6,0.02c-179.66,0-359.32-0.01-538.98,0.04c-6.2,0-12.15-0.84-17.87-3.24
		c-8.6-3.61-14.65-9.89-18.75-18.1C77.57,953.41,75.75,948.29,75.2,942.8z"/>
	<path class="st73" d="M75.2,935.6c0-227.29,0-454.57-0.04-681.86c0-1.78,0.73-3.75-0.77-5.35c-0.24-1.43,0.72-2.62,0.81-3.98
		c0.29-0.24,0.53-0.53,0.79-0.81l0-0.01c0.22-0.21,0.35-0.47,0.41-0.76c0.04-0.3,0.17-0.56,0.39-0.77l0.06-0.06
		c0.12-0.1,0.25-0.21,0.37-0.31c0.12,0.1,0.25,0.21,0.37,0.31c0.27,0.27,0.54,0.54,0.81,0.81c1.24,3.07-1.88,5.49-1.28,8.47
		c-0.01,224.8,0,449.58-0.01,674.37c0,2.67,0.1,5.33-0.11,8c-0.07,0.53-0.24,1.03-0.49,1.51C76.21,935.69,75.77,935.83,75.2,935.6z"
		/>
	<path class="st72" d="M74.41,938.8c1.16,0.86,0.68,2.11,0.77,3.22C74.05,941.16,74.49,939.92,74.41,938.8z"/>
	<path class="st74" d="M75.99,243.6c-0.26,0.27-0.53,0.54-0.79,0.81C75.47,244.14,75.73,243.87,75.99,243.6z"/>
	<path class="st74" d="M76.79,242.75c-0.26,0.28-0.53,0.56-0.79,0.84c0.03-0.29,0.05-0.58,0.08-0.87
		C76.32,242.54,76.56,242.56,76.79,242.75z"/>
	<path class="st24" d="M76.79,242.75c-0.24,0.01-0.48,0-0.71-0.03c0.24-0.22,0.48-0.44,0.72-0.66
		C76.79,242.29,76.79,242.52,76.79,242.75z"/>
	<path class="st73" d="M78.39,241.18c-0.26,0.27-0.52,0.55-0.79,0.82c0,0-0.02-0.01-0.02-0.01c-0.17-0.16-0.23-0.32-0.18-0.49
		c0.05-0.17,0.11-0.25,0.16-0.25C77.85,241.23,78.12,241.21,78.39,241.18z"/>
	<path class="st24" d="M77.58,241.25c0.01,0.25,0.01,0.49,0.01,0.74c-0.24,0-0.49,0-0.73,0.01C77.1,241.75,77.34,241.5,77.58,241.25
		z"/>
	<path class="st12" d="M676.8,168.4c1.77-4.35,5.58-6.38,9.59-7.82c6.61-2.38,13.46-3.66,20.52-4.34c6.11-0.58,12.2-0.84,18.27-0.56
		c9.38,0.44,18.73,1.42,27.69,4.6c2.53,0.9,4.89,2.11,7.18,3.43c1.82,1.05,3.46,2.44,4.07,4.68c0.31,1.14,0.74,2.33,2.25,2.44
		c0.88,2.72,0.36,5.52,0.38,8.27c0.08,9.55,0.02,19.11,0.05,28.66c0,1.3-0.32,2.66,0.36,3.91c0,91.69,0,183.37,0.01,275.06
		c-0.99,0.97-0.71,2.23-0.71,3.4c-0.02,58.62-0.03,117.25-0.04,175.87c0.55,0.85,0.37,1.8,0.37,2.71c0.01,21.11,0.01,42.21,0,63.32
		c0,0.91,0.22,1.87-0.41,2.69c-1.15,1.24-0.71,2.78-0.71,4.2c-0.05,39.67-0.07,79.34-0.09,119.01c-1.16,1.24-0.69,2.78-0.7,4.2
		c-0.05,16.78-0.06,33.57-0.07,50.35c0,1.04,0,2.09,0,3.63c-3.67-2.38-7.15-4.16-10.8-5.66c-4.48-1.84-9.16-2.8-13.84-3.53
		c-8.52-1.33-17.13-2.26-25.77-1.67c-10.05,0.69-20.09,1.64-29.51,5.65c-2.66,1.13-5.28,2.45-7.28,4.67
		c-2.39-0.54-1.31-2.35-1.37-3.74c0.39-2.12,0.24-4.26,0.24-6.38c0.01-241.8,0.01-483.6,0-725.4c0-2.13,0.15-4.27-0.26-6.38
		C675.96,171.88,676.27,170.13,676.8,168.4z"/>
	<path class="st75" d="M676.81,912.39c0.1,1.1-0.39,2.35,0.78,3.19c-0.32,0.65-0.91,0.78-1.56,0.78c-0.8-1.37-0.4-2.87-0.4-4.3
		c-0.02-245.64-0.02-491.27,0-736.91c0-1.44-0.35-2.94,0.35-4.33c0.06-0.88-0.12-1.84,0.82-2.42c0.01,1.61,0.01,3.21,0.02,4.82
		c0.69,1.4,0.35,2.89,0.35,4.33c0.02,243.51,0.02,487.01,0,730.52C677.17,909.51,677.52,911,676.81,912.39z"/>
	<path class="st76" d="M675.98,170.82c0.01,2.27,0.02,4.53,0.02,6.8c0,244.91,0,489.83,0,734.74c0,1.33,0.02,2.67,0.03,4
		c-0.13,0.57,0.2,1.27-0.49,1.71c-0.62-0.77-0.22-1.66-0.36-2.48c0-94.51,0.01-189.02,0.01-283.53c0-152.1,0-304.2,0.03-456.29
		C675.23,174.12,674.55,172.29,675.98,170.82z"/>
	<path class="st70" d="M764.79,937.99c-3.08-2.1-6.16-4.21-9.67-5.52c-1.03-0.39-1.52-0.95-1.52-2.03c0.01-5.83,0-11.67,0-17.84
		c4.43,1.08,7.74,2.99,10.07,6.43c0.93,1.37,1.16,2.91,1.14,4.56C764.76,928.39,764.79,933.19,764.79,937.99
		C764.79,937.99,764.79,937.99,764.79,937.99z"/>
	<path class="st12" d="M751.22,921.07c0,2.12,0.03,4.25-0.01,6.37c-0.06,3.41-0.08,3.41-3.29,2.68c-1.03-0.23-2.04-0.54-3.08-0.77
		c-4.04-0.91-4.05-0.9-4.06-5.08c-0.01-4.11-0.05-8.23,0.01-12.34c0.04-2.51,0.71-2.99,3.16-2.58c7.05,1.18,7.26,1.42,7.25,8.54
		C751.22,918.94,751.22,920,751.22,921.07z"/>
	<path class="st74" d="M75.99,935.6c0.01-0.27,0.01-0.54,0.02-0.81c0.75-1.38,0.38-2.88,0.38-4.32c0.02-225.38,0.02-450.77,0-676.15
		c0-1.44,0.37-2.94-0.38-4.32c-0.26-2.75,2.14-4.62,2.4-7.2c0.35-0.18,0.78-0.29,1.05-0.56c3.54-3.55,7.97-3.5,12.58-3.5
		c58.12,0.07,116.24,0.08,174.36,0.02c9.2-0.01,18.13-2.04,27.01-4.28c10.2-2.58,19.85-6.59,29.51-10.7
		c11.53-4.91,22.28-11.27,33.07-17.54c11.26-6.55,22.05-13.86,32.71-21.35c12.59-8.85,24.96-18.01,37.43-27.03
		c5.7-4.12,11.4-8.24,17.09-12.36c4.95-3.58,9.77-7.34,14.87-10.69c9.32-6.11,18.4-12.6,28.2-18c7.1-3.91,14.17-7.86,21.73-10.83
		c10.08-3.95,20.38-6.51,31.36-6.45c35.72,0.18,71.45,0.29,107.18-0.1c7.98-0.09,12.55,6.52,12.64,12.34c0.01,0.8,0,1.6,0,2.4
		c0,287.67,0,575.34,0,863.02c-0.96,0.49-1.93,0.87-3.05,0.81c-0.93-0.05-1.87-0.01-2.8-0.01c-177.92,0-355.83,0.02-533.75-0.06
		c-7.95,0-15.9-0.76-23.1-4.85c-6.68-3.8-11.55-9.15-14.92-16.07c-2.1-4.32-3.38-8.88-4.79-13.41c0-0.53-0.01-1.07-0.01-1.6
		c-0.47-0.43-0.27-1.19-0.78-1.61c-0.01-1.06-0.01-2.13-0.02-3.19C75.56,936.67,75.5,936.13,75.99,935.6z"/>
	<path class="st77" d="M165.64,73.16c7.59,7.26,4.4,18-2.77,21.41c-3.76,1.79-11.06,2.06-15.18-2.32c-4.14-4.4-4.95-11.26-1.89-16.2
		c2.96-4.77,9.11-7.25,14.55-5.77c0.99,0.27,2.1,0.43,2.86,1.28C163.94,72.23,164.83,72.63,165.64,73.16z"/>
	<path class="st78" d="M165.64,73.16c-1.2,0.06-2-0.47-2.42-1.59C164.34,71.63,165.14,72.16,165.64,73.16z"/>
	<path class="st54" d="M119.24,75.66c0.26-0.29,0.51-0.57,0.77-0.86C119.75,75.09,119.49,75.38,119.24,75.66z"/>
	<path class="st54" d="M120,74.8c0.25-0.26,0.5-0.52,0.74-0.79C120.5,74.28,120.25,74.54,120,74.8z"/>
	<path class="st79" d="M908.79,167.62c0-0.27,0-0.54,0-0.82c3.54,0,6.52,2.01,9.87,2.81c4.03,0.96,7.88,2.93,11.64,4.79
		c7.8,3.86,15.56,7.75,23.04,12.28c8.17,4.95,15.97,10.37,23.47,16.2c7.17,5.58,14.49,11.01,21.03,17.36
		c5.97,5.78,12.94,10.41,18.75,16.37c0.92,0.95,2.03,1.74,2.61,2.99c-0.53,0-1.06,0-1.59,0c-3,0.02-4.66-2.27-6.54-4
		c-12.93-11.9-26.13-23.47-40.2-34.02c-17.48-13.11-36.48-23.39-56.98-30.97C912.1,169.94,909.53,170.22,908.79,167.62z"/>
	<path class="st12" d="M908.79,167.62c8.66,3.27,17.31,6.59,25.66,10.57c6.34,3.03,12.49,6.48,18.52,10.09
		c9.1,5.44,17.8,11.55,26.05,18.2c6.08,4.9,11.99,10.02,17.93,15.1c6.94,5.94,13.27,12.59,20.66,18.01
		c1.36,2.41,3.89,3.58,5.85,5.32c8.04,7.14,16.58,13.7,25.43,19.78c8.63,5.93,17.71,11.14,27.2,15.64
		c15.46,7.33,31.72,12.1,48.47,15.22c8.58,1.6,17.27,2.55,25.97,3.4c6.53,0.64,13.02,0.39,19.52,0.66
		c41.02,1.71,82.07,0.03,123.08,0.95c14.1,0.32,28.21,0.29,42.3,0.68c6.34,0.18,10.82,3.92,14.25,9c0.53,0.78,0.71,1.71,0.69,2.67
		c-0.03,1.2,0,2.4,0,3.6c0,216.36,0,432.72,0,649.08c0,1.2,0.01,2.4,0.01,3.6c0.47,0.54,0.46,1.07-0.02,1.59
		c-2.33,2.16-4.85,3.99-7.97,4.83c-5.87,1.91-11.89,2.4-18.05,2.4c-180.65-0.05-361.29-0.04-541.94-0.04c0,0,0,0.01,0,0.01
		c-0.78-1.51-0.38-3.14-0.38-4.71c-0.02-65.67-0.02-131.33-0.04-197c0-1.57,0.4-3.2-0.38-4.71c-0.01-198.05-0.02-396.1,0.01-594.15
		c0-3.08-1.11-6-0.84-9.11c0.27-3.01,0.14-3.02,3.27-3.12c0.67-0.02,1.33,0,2,0c35.05,0,70.1,0.04,105.15-0.03
		c5.21-0.01,10.34,0,15.25,2.03C907.17,167.5,908.01,167.49,908.79,167.62z"/>
	<path class="st12" d="M1347.12,976.37c0.88-0.17,1.76-0.34,2.66-0.51c-0.67,3.23-3.52,3.95-8.18,2.14c0.25-0.02,0.5-0.03,0.75-0.02
		c1.11-0.28,2.07-1.1,3.32-0.83C1346.16,976.89,1346.64,976.63,1347.12,976.37z"/>
	<path class="st12" d="M1345.67,977.15c-1.03,0.58-2.1,1-3.32,0.83c0.02-0.26,0.04-0.52,0.06-0.77
		C1343.5,977.46,1344.56,975.83,1345.67,977.15z"/>
	<path class="st24" d="M1350.37,970.79c0.01-0.53,0.01-1.06,0.02-1.59C1351.23,969.74,1351.22,970.27,1350.37,970.79z"/>
	<path class="st63" d="M781.61,771.57c1.38,1.48,0.74,3.31,0.74,4.97c0.04,65.55,0.03,131.11,0.04,196.66c0,1.6,0.01,3.2,0.02,4.8
		c-1.41-1.31-0.78-3.02-0.79-4.54c-0.04-22.25-0.03-44.51-0.03-66.76C781.6,861.66,781.61,816.62,781.61,771.57z"/>
	<path class="st47" d="M767.16,211.68c-1.16-1.24-0.7-2.77-0.7-4.19c-0.05-12.22-0.06-24.44-0.08-36.65
		c0.06-0.88-0.13-1.85,0.82-2.44C767.18,182.82,767.17,197.25,767.16,211.68z"/>
	<path class="st80" d="M766.36,734.73c0.02-22.91,0.03-45.82,0.05-68.72c1.22,1.05,0.77,2.47,0.77,3.74
		c0.02,22.21,0.01,44.41,0,66.62C766.52,736.02,766.43,735.38,766.36,734.73z"/>
	<path class="st12" d="M676.03,148.4c1.82-4.56,5.09-7.29,9.74-9.09c6.51-2.51,13.17-3.7,20.03-4.64c7.45-1.02,14.87-0.52,22.3-0.61
		c2.76-0.04,5.53,0.49,8.29,0.84c1.81,0.23,2.83,1.15,2.79,3.18c-0.09,4.79-0.06,9.59-0.02,14.39c0.02,1.73-0.78,2.3-2.43,2.34
		c-2.29,0.06-4.4-0.89-6.71-0.85c-6.92,0.12-13.88-0.38-20.77,0.15c-9.1,0.7-18.24,1.75-26.56,6.11c-1.54,0.81-3.11,1.54-4.25,2.91
		c-0.71,0.86-1.49,1.03-2.42,0.41C675.33,158.49,675.34,153.45,676.03,148.4z"/>
	<path class="st70" d="M751.22,147.8c0,2.39-0.03,4.78,0.01,7.17c0.03,1.78-0.91,2.41-2.5,2.16c-2.35-0.37-4.52-1.48-6.92-1.75
		c-0.97-0.11-1-1.13-1-1.92c-0.01-5.31-0.02-10.63,0-15.94c0.01-1.67,0.87-1.84,2.37-1.55c8.02,1.54,8.03,1.5,8.03,9.84
		C751.22,146.47,751.22,147.14,751.22,147.8z"/>
	<path class="st69" d="M676.03,148.4c0,5.05,0,10.09,0.01,15.14c-0.17,1.01,0.22,2.09-0.84,3.08c0-4.84-0.03-9.68,0.02-14.53
		C675.23,150.83,674.77,149.41,676.03,148.4z"/>
	<path class="st62" d="M770.29,238.26c0,69.69,0,139.39,0,209.08c-0.13,0-0.27,0-0.4,0c0-69.75,0-139.49,0-209.24
		C770.02,238.15,770.16,238.21,770.29,238.26z"/>
	<path class="st72" d="M75.99,935.6c0,0.53,0,1.06,0,1.6c-0.64-0.35-0.78-0.95-0.79-1.6C75.47,935.6,75.73,935.6,75.99,935.6z"/>
	<path class="st72" d="M76.01,940.39c0.63,0.35,0.78,0.94,0.78,1.61C76.15,941.65,76.01,941.05,76.01,940.39z"/>
	<path class="st81" d="M76.01,250.01c0.57,0.44,0.78,1.05,0.78,1.74c0,1.2,0.01,2.4,0.01,3.6c0,224.7,0,449.4-0.04,674.1
		c0,1.78,0.74,3.74-0.75,5.34C76.01,769.86,76,604.93,76,440C76,376.67,76.01,313.34,76.01,250.01z"/>
	<path class="st82" d="M676.81,912.39c0-52.26-0.01-104.53-0.01-156.79c0-192.26,0-384.52,0-576.78c0-1.87,0.01-3.73,0.02-5.6
		c0.58,0.44,0.77,1.05,0.77,1.75c0,1.2,0.01,2.4,0.01,3.6c0,242.83,0,485.66-0.04,728.49C677.56,908.82,678.32,910.79,676.81,912.39
		z"/>
	<path class="st83" d="M617.32,266.5c2.06,1.24,3.97,2.69,5.71,4.35c4.87,4.65,7.34,10.23,7.34,17.07
		c-0.05,135.52-0.03,271.04-0.04,406.55c0,1.2-0.09,2.39-0.14,3.59c-1.65,10.07-10.57,17.82-21.52,18.67
		c-1.86,0.14-3.73,0.09-5.6,0.09c-136.79,0-273.58-0.02-410.37,0.07c-5.06,0-9.09-1.08-12.97-4.68
		c-5.87-5.44-11.49-11.12-17.17-16.75c-11.93-11.83-23.77-23.75-35.65-35.62c-7.07-7.06-13.93-14.36-21.62-20.77
		c-4.34-3.62-5.85-7.95-5.82-13.64c0.21-39.33,0.11-78.66,0.11-117.99c0-74.13,0.04-148.26-0.06-222.39
		c-0.01-7.95,3.21-13.55,10.14-17.15c3.44-1.79,7.28-1.25,10.96-1.67c4.71,0,9.42,0.01,14.13,0.01c1.32,0.31,2.65,0.16,3.98,0.16
		c126.99,0.01,253.97,0.01,380.96,0c1.33,0,2.67,0.16,3.98-0.16c30.31-0.01,60.62-0.02,90.93-0.02c0.8,0,1.59,0.08,2.39,0.13
		L617.32,266.5z"/>
	<path class="st84" d="M301.6,945.95c-33.6,0-67.2-0.01-100.8,0.02c-2.31,0-4.46-0.11-6.31-1.84c-1.95-1.83-3.17-3.9-3.18-6.61
		c0-0.67,0-1.33,0-2c0-28.13,0-56.26,0-84.4c0-0.93-0.03-1.87,0.02-2.8c0.18-3.3,2.05-5.47,5.31-5.97c1.31-0.2,2.66-0.12,3.99-0.12
		c67.2-0.01,134.4,0,201.59-0.03c2.77,0,5.27,0.37,7.34,2.43c1.48,1.48,2.48,3.1,2.4,5.27c-0.04,1.06,0.02,2.13,0.02,3.2
		c0,27.47,0,54.93-0.01,82.4c0,1.33,0.08,2.65-0.33,3.96c-1.79,5.71-3.58,6.55-8.46,6.53C369.33,945.9,335.46,945.94,301.6,945.95z"
		/>
	<path class="st85" d="M120.61,266.24c-2.47,0.48-4.99,0.76-7.39,1.48c-6.95,2.07-12.7,8.21-12.69,16.83
		c0.13,114.75,0.1,229.51,0.04,344.26c0,2.63,0.84,4.43,2.68,6.25c24.68,24.32,49.3,48.7,73.93,73.07c0.76,0.75,1.74,1.32,2.34,2.17
		c3.46,4.98,8.34,5.41,13.97,5.41c137.14-0.13,274.29-0.12,411.43-0.05c8.41,0,15.39-2.54,20.67-9.23c2-2.53,3.26-5.46,4.59-8.35
		c1.15,7.38-0.81,13.82-5.61,19.53c-1.38,1.64-3.5,2.43-4.6,4.31c-4.74,4.42-10.67,4.09-16.5,4.09c-57.7,0.01-115.41,0-173.11,0
		c-82.36,0-164.72-0.06-247.07,0.15c-5.4,0.01-9.23-1.29-12.12-5.67c-5.57-6.46-11.87-12.22-17.88-18.25
		c-20.78-20.87-41.62-41.67-62.45-62.48c-1.62-1.62-3.08-3.08-2.6-5.81c0.38-2.18-0.11-4.5-0.11-6.76
		c-0.01-113.4-0.01-226.8-0.03-340.21c0-3.09,0.23-6.11,1.45-8.99c0.57-0.38,0.39-1.14,0.8-1.6l0,0c0.56-0.37,0.35-1.16,0.86-1.55
		c0.82-1.3,1.83-2.43,3.15-3.24c0.29-0.24,0.57-0.49,0.86-0.73l0.02-0.01c0.38-0.51,1.17-0.33,1.52-0.89l-0.01,0.01
		c0.29-0.22,0.58-0.46,0.86-0.69c4.85-2.47,10.05-3.29,15.43-3.17C115.57,266.14,118.09,266.19,120.61,266.24z"/>
	<path class="st86" d="M475.47,803.61c1.19-1.33,2.76-0.69,4.13-0.69c13.46-0.06,26.91-0.04,40.37-0.04
		c-0.66,2.34-2.68,1.83-4.26,1.87c-9.98,0.27-19.93-0.53-29.9-0.87c-0.1,0-0.2-0.17-0.3-0.26c-0.01,0.08-0.01,0.16-0.03,0.39
		c14.16,0.12,28.24,1.48,42.36,2.36c6.16,0.39,6.8-0.42,6.24-6.5c-1.24-13.4-2.17-26.83-3.89-40.17c-0.8-6.22,2.27-11.86,9.97-11.42
		c9.17,0.52,18.39,0.09,27.59,0.14c5.56,0.03,8.37,3.84,7.7,9.34c-0.76,6.19-0.79,12.46-1.31,18.69c-0.67,7.96-1.46,15.91-1.9,23.9
		c-0.28,5.04,1.74,7.19,6.8,6.66c8.61-0.9,17.23-1.72,25.86-2.41c5.7-0.46,11.36-1.3,17.09-1.42c4.57-0.09,8.42,2.9,8.61,7.51
		c0.4,9.59,0.38,19.2,0.01,28.79c-0.18,4.69-5.17,8.94-10.02,9.28c-4.16,0.29-8.25-0.53-12.35-0.9c-8.22-0.76-16.49-1.03-24.68-2.1
		c-1.06-0.14-2.13-0.16-3.19-0.12c-4.05,0.16-5.33,1.29-5.51,5.24c-0.17,3.73-0.42,7.5,0.1,11.19c1.34,9.54,0.24,19.16,1.26,28.74
		c0.81,7.67-3.43,11.54-11.25,11.58c-8.4,0.05-16.81-0.24-25.2,0.09c-6.48,0.25-10.94-4.08-10-10.6
		c1.76-12.25,2.57-24.64,3.94-36.96c1.01-9.16-0.37-10.8-9.52-10.02c-12.6,1.08-25.24,1.69-37.84,2.81c-4.9,0.43-9.6-3.38-9.79-8.43
		c-0.37-9.59-0.2-19.19-0.07-28.79c0.03-2.07,1-3.78,2.32-5.33C477.69,804.29,476.23,804.71,475.47,803.61z"/>
	<path class="st87" d="M475.47,803.61c2,0,3.99,0,5.97,0c0,0.33,0.09,0.68-0.01,0.74c-3.25,2.12-4.06,5.09-3.93,8.9
		c0.28,8.39,0.06,16.79,0.09,25.19c0.02,5.44,4.48,9.07,9.73,7.88c1.46-0.33,2.91-0.35,4.36-0.31c5.33,0.16,10.59-0.72,15.89-1.04
		c7.4-0.44,14.79-1.12,22.21-1.4c1.35-0.05,2.66-0.03,3.7,1.07c1.17,1.24,2.08,2.21,1.88,4.4c-0.71,7.91-1.66,15.79-2.4,23.7
		c-0.71,7.64-1.46,15.28-2.4,22.89c-0.22,1.77,3.41,5.25,5.58,5.52c0.53,0.06,1.07,0.02,1.6,0.02c9.73,0,19.46,0.02,29.19-0.01
		c4.53-0.01,8.5-3.75,8.2-8.24c-0.6-8.9-0.36-17.82-0.95-26.69c-0.36-5.45-0.45-10.88-0.55-16.31c-0.08-3.92,1.62-5.5,5.56-5.54
		c5.58-0.05,11.09,0.78,16.62,1.4c0.92,0.1,1.85,0.17,2.78,0.19c5.7,0.12,11.36,0.74,17.01,1.48c2.23,0.29,4.52,0.12,6.79,0.1
		c0.5-0.01,1.13-0.15,1.48-0.47c2.98-2.75,6.18-5.03,5.87-10.11c-0.51-8.23-0.41-16.53-0.02-24.78c0.2-4.16-2.43-5.88-4.89-8.03
		c-0.26-0.23-0.74-0.32-1.11-0.29c-5.92,0.6-11.85,1.14-17.75,1.89c-3.29,0.42-6.61,0.46-9.9,0.78c-4.07,0.39-8.15,1.19-12.28,1.04
		c-1.21-0.04-2.35,0.34-3.53,0.53c-2.33,0.36-4.64,0.74-6.87-0.9c-3-2.22-3.06-2.08-2.41-5.83c0.57-3.26,0.55-6.62,0.78-9.89
		c0.33-4.49,0.77-8.99,1.17-13.47c0.38-4.33,0.39-8.72,1.29-13.03c0.64-3.09-0.14-6.37,0.9-9.49c0.3-0.89-0.04-1.83-0.97-2.41
		c-0.91-0.57-1.67-1.34-2.17-2.31c-0.73-1.41-1.97-1.6-3.38-1.6c-10.26,0.02-20.53-0.03-30.79,0.03c-3.38,0.02-6.51,3.25-6.61,6.62
		c-0.1,3.86,0.71,7.65,1.01,11.49c0.39,5.14,1.02,10.26,1.42,15.41c0.31,3.95,0.85,7.89,1.37,11.82c0.4,3.02,0.15,6.07,0.83,9.11
		c0.49,2.18-2.24,4.05-4.64,4.11c-5.6,0.14-11.16-0.57-16.68-1.12c-7.64-0.76-15.33-0.89-22.93-2.1c-2.44-0.39-4.99-0.06-7.5-0.35
		c1.18-0.87,2.47-0.58,3.71-0.58c9.33-0.03,18.66,0,27.99-0.04c1.41-0.01,2.96,0.52,4.18-0.7c0.04-12.93,0.16-25.86,0.06-38.79
		c-0.02-2.91,0.7-5.06,2.91-7c2.7-2.37,5.15-5.03,7.63-7.63c1.27-1.33,2.63-2.03,4.54-2.02c11.47,0.07,22.93,0.01,34.4,0.06
		c4.1,0.02,7.32,3.71,7.09,7.9c-0.73,12.89-1.45,25.79-2.16,38.68c-0.09,1.6-0.13,3.2-0.11,4.8c0.04,3.36,2.08,5.59,5.4,5.47
		c6.92-0.25,13.83-0.7,20.75-1.06c8.11-0.43,16.22-0.92,24.33-1.24c3.17-0.12,7.31,3.92,7.33,7.1c0.06,11.2,0,22.4,0.02,33.6
		c0,1.42-0.3,2.63-1.43,3.54c-0.1,0.08-0.19,0.19-0.28,0.28c-3.02,2.81-5.32,6.7-9.01,8.38c-3.44,1.57-7.62,0.45-11.47,0.48
		c-9.07,0.08-18.13,0.01-27.2,0.03c-4.33,0.01-5.37,1.08-5.38,5.47c-0.02,11.47-0.06,22.93,0.04,34.4c0.02,2.3-0.59,4.06-2.22,5.7
		c-2.44,2.45-4.76,5.03-6.99,7.68c-1.33,1.58-2.86,2.09-4.88,2.09c-12.53-0.01-25.06,0.1-37.6,0.12c-3.97,0.01-8.09-4.13-8.1-8.15
		c-0.03-11.87,0-23.73,0-35.6c0-5.52-1.84-7.33-7.44-7.33c-11.47,0-22.93,0.01-34.4-0.01c-4.97-0.01-8.6-3.73-8.6-8.75
		c-0.01-12,0.05-24-0.05-36c-0.02-2.32,0.57-4.08,2.32-5.62C471.56,807.6,473.48,805.56,475.47,803.61z"/>
	<path class="st88" d="M134.42,727.59c0.21-0.15,0.42-0.42,0.64-0.44c13.08-1.28,25.82-1.04,36.3,8.58
		c6.9,6.33,11.17,14.07,11.85,23.53c0.24,3.3,0.02,6.63,0.01,9.94c-0.71,2.95-0.94,6.03-2.22,8.84c-0.14,0.33-0.3,0.65-0.47,0.97
		c-0.15,0.33-0.33,0.64-0.5,0.96c-0.15,0.34-0.33,0.66-0.51,0.98c-0.26,0.52-0.53,1.02-0.82,1.52
		c-8.24,11.84-19.52,18.37-33.97,17.07c-15.63-1.4-26.84-9.76-32.23-24.84c-6.65-18.6,3.28-40.62,22.44-46.43
		c0.08-0.02,0.1-0.23,0.15-0.34C134.81,727.95,134.59,727.84,134.42,727.59z"/>
	<path class="st89" d="M261.92,776.41c-12.66,0-25.32,0.01-37.98-0.01c-5.42-0.01-7.97-2.05-9.19-7.38
		c-0.54-2.35-0.7-4.75,0.13-7.07c1.53-4.23,4.66-6.33,9.51-6.33c17.59-0.02,35.18-0.01,52.77-0.01c7.6,0,15.19-0.03,22.79,0.01
		c4.75,0.03,9.68,3.23,11.06,7.07c2.3,6.4-2.2,13.21-9.11,13.69c-1.86,0.13-3.73,0.03-5.6,0.03
		C284.84,776.41,273.38,776.41,261.92,776.41z"/>
	<path class="st90" d="M390.73,776.55c-12.38,0-24.76-0.06-37.14,0.03c-4.01,0.03-7.52-0.76-9.32-4.71
		c-1.99-4.39-1.98-8.8,0.86-12.9c1.37-1.98,3.51-2.77,5.78-3.2c0.77-0.14,1.59-0.06,2.39-0.06c24.89,0,49.79,0.03,74.68-0.03
		c3.99-0.01,7.31,1.16,9.77,4.38c2.37,3.1,2.85,6.51,1.41,10.15c-1.46,3.67-4.22,5.75-8.1,6.21c-1.71,0.21-3.46,0.12-5.19,0.13
		C414.16,776.56,402.44,776.55,390.73,776.55z"/>
	<path class="st91" d="M179.18,780.37c0-0.26,0.02-0.52,0.04-0.78c0.27-0.25,0.53-0.52,0.77-0.8l0-0.02
		c2.19,0.59,1.08,2.06,0.86,3.28l0.02-0.03c-0.87,0.57-0.14,1.74-0.89,2.35l-0.01,0.02c-0.85,0.92-1.04,2.15-1.56,3.23
		c-7.41,13.64-18.94,20.95-34.37,21.69c-16.32,0.79-28.84-6.13-37.51-19.87c-9.22-14.61-7.45-34.99,3.9-48.04
		c6.42-7.39,14.2-12.34,24-13.81c0.66,0.02,1.33,0.04,1.99,0.08c0.12,0.01,0.23,0.12,0.62,0.34c-4.36,1.81-8.4,3.8-12,6.63
		c-7.58,5.97-11.76,13.71-13.12,23.25c-0.9,6.35-0.11,12.32,2.26,18.19c4.92,12.18,13.97,19.49,26.75,21.85
		c16.19,2.99,28.34-3.64,37.47-16.73C178.71,780.96,178.92,780.65,179.18,780.37z"/>
	<path class="st92" d="M171.18,720.47c0.34,0.21,0.79,0.33,1,0.63c2.77,4.02,6.74,4.31,11.23,4.3
		c139.06-0.09,278.12-0.09,417.18-0.01c6.74,0,13.28-0.33,19.39-3.49c-1.51,2.03-3.68,3.3-5.57,4.9c-0.91,1.16-2.51,1.2-3.27,0.66
		c-2.13-1.5-4.29-0.57-6.42-0.66c-0.93-0.04-1.87-0.01-2.8-0.01c-138.61,0-277.21-0.01-415.82,0.04c-2.54,0-5.35-0.94-7.59,1.27
		c-0.18,0.18-0.95,0.14-1.08-0.04C175.59,725.32,172.23,723.84,171.18,720.47z"/>
	<path class="st93" d="M84.69,280.66c0,117.43,0,234.85,0,352.28c-0.13,0-0.27,0-0.4,0c0-117.48,0-234.96,0-352.44
		C84.42,280.55,84.56,280.61,84.69,280.66z"/>
	<ellipse class="st94" cx="390.43" cy="778.43" rx="53.03" ry="0.26"/>
	<path class="st95" d="M180.85,782.06c-0.21-1.11,0.34-2.43-0.86-3.28c1.01-3.21,1.79-6.51,3.24-9.57
		C183.49,773.68,182.89,778,180.85,782.06z"/>
	<path class="st95" d="M178.41,787.62c-0.11-1.38,0.13-2.59,1.56-3.23C179.82,785.65,179.41,786.78,178.41,787.62z"/>
	<path class="st95" d="M179.98,784.37c0.02-0.89-0.13-1.84,0.89-2.35C180.89,782.93,180.79,783.78,179.98,784.37z"/>
	<path class="st96" d="M90.36,276.37c0.05,0.69-0.13,1.27-0.8,1.6C89.55,277.31,89.72,276.72,90.36,276.37z"/>
	<path class="st96" d="M91.21,274.81c-0.01,0.67-0.17,1.26-0.86,1.55C90.36,275.7,90.53,275.11,91.21,274.81z"/>
	<path class="st97" d="M96.76,269.95c-0.27,0.71-0.86,0.86-1.52,0.89C95.53,270.16,96.1,269.97,96.76,269.95z"/>
	<path class="st97" d="M95.22,270.84c-0.29,0.24-0.57,0.49-0.86,0.73C94.51,271.17,94.79,270.91,95.22,270.84z"/>
	<path class="st97" d="M97.62,269.26c-0.29,0.23-0.57,0.46-0.86,0.69C96.89,269.54,97.19,269.32,97.62,269.26z"/>
	<polygon class="st85" points="617.32,266.5 617.09,266.54 616.98,266.34 617.21,266.28 	"/>
	<path class="st98" d="M858.43,539.63c-4.13,0-7.13-1.34-9.93-4.03c-3.17-3.04-5.64-6.4-5.88-10.98c-0.03-0.67-0.02-1.33-0.02-2
		c0-58.39,0.08-116.79-0.12-175.18c-0.02-6.06,1.61-10.6,6.47-14.05c0.07-0.16,0.13-0.31,0.19-0.47c0.68-0.55,1.48-0.83,2.31-1.02
		c0.53-0.04,1.01,0.05,1.34,0.53c2.4,0.04,4.79,0.12,7.19,0.12c135.45,0,270.9,0.01,406.35-0.05c3.87,0,7.33,0.61,10.57,2.81
		c4.69,3.17,7.01,7.43,6.99,13.1c-0.05,17.6-0.02,35.2-0.02,52.79c0,39.73-0.03,79.46,0.05,119.19c0.01,5.73-2.16,10.64-4.94,15.36
		c-1.51,2.56-3.87,3.98-7.01,3.79c-1.33-0.08-2.67-0.01-4-0.01"/>
	<path class="st98" d="M940.26,869.19c29.31,0,58.62,0,87.94,0c1.2,0,2.43-0.14,3.59,0.06c4.08,0.71,5.76,2.67,5.72,6.26
		c-0.19,15.05-0.05,30.11-0.08,45.17c-0.01,5.77-1.94,7.67-7.65,7.67c-59.16,0-118.31-0.01-177.47-0.01c-0.8,0-1.6,0.06-2.4,0
		c-3.88-0.29-6-2.49-6.01-6.35c-0.02-15.85-0.02-31.71,0-47.57c0-3.94,0.99-4.96,4.83-5.18c1.06-0.06,2.13-0.04,3.2-0.04
		C881.37,869.19,910.82,869.19,940.26,869.19z"/>
	<path class="st98" d="M1186.5,869.21c29.46,0,58.91,0,88.37,0c1.07,0,2.14-0.06,3.2,0.05c3.59,0.36,5.28,2.02,5.63,5.55
		c0.12,1.19,0.08,2.4,0.08,3.6c0,13.86,0.01,27.72,0,41.58c0,1.06,0.06,2.15-0.14,3.19c-0.64,3.33-2.69,5.02-6.09,5.15
		c-0.53,0.02-1.07,0.01-1.6,0.01c-59.18,0-118.36,0-177.53,0.01c-2.01,0-3.95-0.03-5.75-1.21c-1.57-1.03-2.47-2.2-2.42-4.21
		c0.1-4.4,0.01-8.8,0.01-13.19c0-11.46,0-22.92,0-34.39c0-5.39,0.73-6.12,6.28-6.14c5.6-0.02,11.2-0.01,16.79-0.01
		c24.39,0,48.78,0,73.17,0C1186.5,869.2,1186.5,869.2,1186.5,869.21z"/>
	<path class="st99" d="M936.05,758.79c1.33-0.07,2.65-0.19,3.98-0.19c26.08-0.01,52.16-0.01,78.25-0.01c0.8,0,1.6-0.03,2.39,0.02
		c4.05,0.28,5.71,1.99,5.72,6.05c0.02,14.77,0.02,29.54,0,44.31c0,3.06-0.08,6.12-0.13,9.18c-1.53,4.42-2.35,5.07-7.69,5.1
		c-15.3,0.09-30.6,0.03-45.9,0.03c-10.38,0-20.76,0.02-31.13-0.02c-1.97-0.01-4.02,0.21-5.76-1.11c-1.12-1.52-0.89-3.3-0.89-5.01
		c-0.03-17.68-0.02-35.37,0-53.05C934.89,762.26,934.62,760.33,936.05,758.79z"/>
	<path class="st99" d="M852.33,758.87c1.19-0.1,2.38-0.28,3.57-0.28c25.34-0.01,50.69-0.01,76.03,0.01c0.79,0,1.58,0.14,2.37,0.21
		c1.06,1.08,0.89,2.46,0.89,3.77c0.01,18.79,0.02,37.58,0,56.37c0,1.06,0.09,2.14-0.53,3.11c-1.56,1.35-3.48,1.2-5.32,1.2
		c-23.29,0.03-46.59,0.06-69.88-0.01c-7.84-0.02-10.31-2.54-10.33-10.3c-0.03-15.84-0.04-31.68,0.01-47.52
		C849.15,762.79,848.95,759.93,852.33,758.87z"/>
	<path class="st100" d="M1283.71,686.17c0.16,3.04,0.81,6.21-0.36,9.08c-2.81,6.92-6.7,9.15-12.92,9.15
		c-109.85-0.11-219.7-0.08-329.55-0.08c-27.73,0-55.46-0.08-83.19,0.07c-4.94,0.03-8.7-2.08-12.37-4.78
		c-1.53-1.13-2.46-2.78-2.52-4.78c-0.04-1.33-0.11-2.66-0.12-3.99c-0.01-35.86,0-71.72-0.01-107.58c0-6.25,2.93-9.5,9.26-9.97
		c2.38-0.18,4.79-0.31,7.18,0.12c-0.02,0.57-0.26,1.1-0.77,1.29c-4.73,1.82-5.25,5.59-5.2,10.05c0.17,14.22,0.06,28.44,0.07,42.66
		c0,1.85-0.19,3.73,0.64,5.48c1.52,1.25,3.32,0.77,5,0.77c24.17,0.04,48.35,0,72.52,0.06c1.96,0.01,4.36-0.8,5.56,1.79
		c-1.85,1.84-4.24,1.32-6.44,1.32c-23.59,0.04-47.18,0.02-70.77,0.03c-6.4,0-6.47,0.08-6.47,6.45c-0.01,12.79-0.01,25.59,0,38.38
		c0.01,8.02,3.91,12.14,12.05,12.58c3.99,0.22,7.99,0.06,11.99,0.06c17.86,0.01,35.72,0.01,53.57,0c1.73,0,3.47,0.07,5.14-0.48
		c2-1.15,1.22-3.1,1.22-4.7c0.06-16.25-0.01-32.5,0.09-48.75c0.01-1.72-0.88-4.14,2.03-4.75c1.46,1.86,1.09,4.06,1.09,6.15
		c0.04,15.58,0.01,31.16,0.03,46.74c0.01,5.63,0.15,5.76,5.87,5.76c23.57,0.01,47.14,0.02,70.71,0c5.41,0,5.63-0.22,5.64-5.62
		c0.03-15.58-0.01-31.16,0.03-46.74c0-2.1-0.33-4.29,1.02-6.19c2.87,0.24,2.07,2.57,2.1,4.11c0.14,8.65,0.06,17.31,0.07,25.96
		c0,8.12-0.02,16.24,0.02,24.37c0.01,1.35-0.64,3.03,1.26,3.8c1.59,0.33,3.19,0.31,4.79,0.32c24.11,0.01,48.22,0.01,72.33,0
		c5.41,0,5.59-0.18,5.6-5.62c0.02-15.58-0.01-31.17,0.03-46.75c0-2.1-0.34-4.29,1.03-6.18c2.84,0.28,2.07,2.58,2.09,4.13
		c0.13,9.98,0.06,19.97,0.06,29.95c0,6.79-0.02,13.58,0.02,20.37c0.01,1.35-0.63,3.03,1.27,3.79c2.39,0.47,4.79,0.31,7.18,0.32
		c25.68,0.08,51.37-0.14,77.05,0.11c0.75,0.03,1.51,0.03,2.26,0.02c22.06-0.15,44.12-0.19,66.18,0.03
		c6.49,0.06,11.88-0.93,15.04-7.24C1282.43,686.64,1282.98,686.23,1283.71,686.17z"/>
	<path class="st101" d="M1113.56,573.42c1.06-0.07,2.11-0.19,3.17-0.19c26.55-0.01,53.09-0.01,79.64,0c0.92,0,1.84,0.13,2.77,0.2
		c1.46,1.36,1.18,3.16,1.18,4.85c0.03,16.84,0.03,33.67,0,50.51c0,1.58,0.14,3.21-0.91,4.59c-1.36,1.09-2.98,1.01-4.58,1.01
		c-25.45,0.01-50.9,0.02-76.35-0.01c-5.22-0.01-5.97-0.76-5.98-6.06c-0.04-16.66-0.03-33.31,0-49.97
		C1112.49,576.65,1112.19,574.84,1113.56,573.42z"/>
	<path class="st101" d="M1026.32,573.41c0.93-0.06,1.85-0.18,2.78-0.18c26.52-0.01,53.03-0.01,79.55,0c0.93,0,1.86,0.11,2.79,0.16
		c1.53,0.94,1.36,2.48,1.36,3.93c0.02,17.46,0.03,34.92-0.01,52.39c-0.01,3.88-0.73,4.65-4.74,4.66c-25.86,0.06-51.72,0.06-77.58,0
		c-4.22-0.01-5.21-1.02-5.23-5.24c-0.06-17.2-0.03-34.39-0.02-51.59C1025.22,576.07,1025.16,574.58,1026.32,573.41z"/>
	<path class="st101" d="M939.05,573.4c0.79-0.06,1.59-0.18,2.38-0.18c26.64-0.01,53.28-0.01,79.93,0c0.93,0,1.86,0.11,2.78,0.17
		c1.11,1.19,1.04,2.68,1.04,4.15c0.02,17.05,0.03,34.1-0.01,51.15c-0.01,4.7-0.96,5.67-5.61,5.67c-25.31,0.04-50.62,0.04-75.93,0
		c-4.65-0.01-5.6-0.97-5.61-5.67c-0.04-17.05-0.02-34.1-0.01-51.15C938.02,576.09,937.95,574.6,939.05,573.4z"/>
	<path class="st101" d="M851.99,633.62c-0.01-17.32-0.02-34.64-0.02-51.96c0-4.78,1.13-6.27,5.72-7.67c0.49-0.15,0.95-0.4,1.43-0.6
		c2.52-0.06,5.04-0.17,7.56-0.17c22.08-0.01,44.15-0.01,66.23,0c1.32,0,2.65,0.12,3.97,0.18c1.36,1.42,1.09,3.22,1.09,4.92
		c0.02,16.66,0.03,33.31,0,49.97c-0.01,5.22-0.51,5.69-5.73,5.69c-25.72,0.01-51.43,0.01-77.15-0.01
		C854.07,633.98,852.97,634.27,851.99,633.62z"/>
	<path class="st101" d="M1200.9,573.43c1.32-0.07,2.65-0.2,3.97-0.21c21.31-0.02,42.61,0.02,63.92-0.06
		c4.15-0.02,7.88,1.06,11.34,3.21c2.26,1.4,3.74,3.32,3.72,6.18c-0.07,16.91-0.11,33.82-0.15,50.73c-1.42,1.35-3.22,1.09-4.92,1.09
		c-24.37,0.02-48.73,0.02-73.1,0c-1.72,0-3.49,0.19-5-0.95c-0.91-1.16-0.67-2.54-0.67-3.85c-0.02-17.33-0.02-34.66,0-51.99
		C1200.02,576.17,1199.68,574.62,1200.9,573.43z"/>
	<path class="st101" d="M1283.71,686.17c-0.85,2.08-1.84,4.05-3.4,5.76c-2.18,2.38-4.62,3.71-7.98,3.7
		c-23.83-0.08-47.65-0.05-71.48-0.05c-1.35-1.4-1.17-3.18-1.17-4.89c-0.02-16.87-0.02-33.73,0-50.6c0-1.58-0.15-3.21,0.87-4.61
		c1.46-1.21,3.23-1.06,4.94-1.06c24.43-0.01,48.85-0.01,73.28,0c1.7,0,3.49-0.25,4.92,1.06c0.06,7.72,0.16,15.43,0.15,23.15
		C1283.86,667.81,1283.76,676.99,1283.71,686.17z"/>
	<path class="st102" d="M1283.7,635.48c-26.42,0-52.85-0.01-79.27,0c-1.19,0-2.38,0.1-3.58,0.15c-0.63,0.49-1.32,0.86-2.12,1
		c-1.97,0.4-3.98,0.25-5.97,0.25c-23.94,0.01-47.88,0-71.81,0.01c-5.94,0-6.07,0.13-6.08,5.98c-0.02,15.29,0.02,30.59-0.03,45.88
		c-0.01,2.07,0.41,4.31-1.34,6.03c-0.59,0.19-1.35,0.68-1.48-0.41c-0.13-1.05-0.06-2.12-0.06-3.18c0-17.13,0.01-34.26-0.03-51.39
		c0-1.41,0.49-2.94-0.64-4.19c-1.94,1.57-4.27,1.27-6.51,1.27c-22.62,0.02-45.23,0.01-67.85,0.01c-1.2,0-2.39-0.01-3.59,0
		c-5.45,0.05-5.65,0.21-5.66,5.57c-0.03,15.43,0.02,30.86-0.04,46.3c-0.01,2.07,0.43,4.32-1.41,5.99c-0.47,0.2-1.19,0.58-1.34-0.03
		c-0.25-1-0.15-2.1-0.15-3.15c-0.01-17.24,0.01-34.48-0.03-51.72c0-1.4,0.5-2.94-0.64-4.18c-1.57,1.29-3.47,1.23-5.33,1.24
		c-24.77,0.02-49.53,0.02-74.3,0c-1.86,0-3.76,0.06-5.32-1.25c-1.18,1.23-0.66,2.77-0.66,4.17c-0.04,17.25-0.02,34.5-0.03,51.75
		c0,1.06,0.09,2.15-0.15,3.16c-0.15,0.62-0.87,0.24-1.35,0.04c-1.63-1.41-1.4-3.37-1.41-5.19c-0.05-16.36-0.04-32.72-0.01-49.08
		c0-1.73,0-3.48,1.2-4.93c-1.38-1.23-3.05-0.66-4.58-0.67c-25.31-0.04-50.61-0.01-75.92-0.07c-1.43,0-3.29,0.86-4.23-1.18
		c1.85-0.11,3.71-0.32,5.56-0.32c24.48-0.02,48.95-0.01,73.43-0.01c0.8,0,1.6,0.01,2.39,0c3.45-0.07,3.5-0.07,3.51-3.61
		c0.02-18.76,0-37.51,0-56.27c0.72-0.27,1.45-0.28,2.17,0c0,18.24,0,36.49,0.01,54.73c0,1.07,0.03,2.13,0.03,3.2
		c0,1.32,0.65,1.95,1.96,1.94c0.8-0.01,1.6,0.02,2.4,0.02c25.43,0,50.87,0,76.3,0c0.8,0,1.6-0.03,2.4-0.02
		c1.31,0.01,1.96-0.62,1.96-1.94c0-1.07,0.03-2.13,0.03-3.2c0-18.24,0-36.49,0.01-54.73c0.73-0.26,1.45-0.24,2.18,0.01
		c0,18.39-0.01,36.79-0.01,55.18c0,0.93,0.03,1.87,0.03,2.8c-0.01,1.36,0.75,1.89,2.01,1.89c0.93,0,1.87,0.02,2.8,0.02
		c25.32,0,50.65,0,75.97,0c0.27,0,0.53,0,0.8,0c3.92-0.04,3.96-0.04,3.96-3.98c0.01-17.33,0-34.65,0.01-51.98
		c0-1.34,0.02-2.67-0.46-3.94c0.72-0.27,1.43-0.22,2.13,0.03c0,18.53-0.01,37.05-0.01,55.58c0,0.53,0.05,1.07,0,1.6
		c-0.22,2.14,0.86,2.72,2.84,2.71c27.59-0.07,55.18-0.1,82.76-0.14c0.58-0.45,1.16-0.45,1.74-0.01c2.25,0.04,4.51,0.13,6.76,0.13
		c25.35,0.01,50.7,0,76.06,0C1283.94,634.02,1283.94,634.75,1283.7,635.48z"/>
	<path class="st103" d="M852.33,758.87c-1.76,1.41-1.85,3.34-1.85,5.4c0.04,16.89,0.01,33.78,0.03,50.68c0,4.84,2.12,6.98,7.05,6.99
		c25.54,0.01,51.07-0.02,76.61-0.04c0.68-0.4,1.36-0.4,2.03,0.02c27.93,0.01,55.87-0.03,83.8,0.11c3.19,0.02,4.9-1.41,6.26-3.88
		c0.34,2.41,0.27,4.8-0.76,7.04c-0.89,1.93-2.26,3.24-4.61,3.15c-1.73-0.07-3.46-0.02-5.19-0.02c-53.54,0-107.07,0-160.61,0
		c-1.46,0-2.93,0-4.39-0.03c-4.58-0.11-6.77-2.32-6.77-6.89c-0.01-18.78-0.01-37.55,0-56.33c0-5.74,0.79-6.52,6.42-6.38
		C851.01,758.69,851.67,758.8,852.33,758.87z"/>
	<path class="st104" d="M852.79,332.44c-0.51,0.06-1.02,0.12-1.53,0.18c-1.03-0.51-1.83-0.33-2.35,0.75c0,0,0.03,0.03,0.03,0.03
		c-1.09-0.37-2.48-0.52-2.22-2.17c0.18-1.14,2.95-3.18,3.47-2.61c1.9,2.12,3.38,0.46,5.01-0.22c1.4-1.11,3.06-0.78,4.63-0.78
		c133.19-0.01,266.38-0.02,399.58,0.01c1.55,0,3.23-0.43,4.6,0.78c0.35,1.34,1.86,1.32,2.63,2.15c-0.52,1.14-1.51,1.01-2.41,1.04
		c-0.93,0.03-1.87,0.01-2.8,0.01c-133.66,0-267.31,0-400.97-0.01c-1.85,0-3.71,0.25-5.53-0.46
		C853.82,330.71,853.23,331.56,852.79,332.44z"/>
	<path class="st105" d="M1242.58,738.93c-10.39,0-20.79-0.35-31.16,0.14c-5.92,0.28-11.03-4.74-8.41-12.23
		c0.99-2.83,3.02-4.28,5.85-4.77c0.91-0.16,1.86-0.07,2.79-0.07c20.51,0,41.02,0.02,61.53-0.03c3.53-0.01,6.54,0.75,8.74,3.76
		c3.76,5.14,0.91,12.19-5.39,13.06c-1.44,0.2-2.92,0.14-4.39,0.14C1262.29,738.94,1252.43,738.93,1242.58,738.93z"/>
	<path class="st105" d="M1193.65,724.37c3,2.73,3.87,6.01,2.2,9.72c-1.61,3.56-4.61,4.85-8.41,4.84
		c-21.17-0.04-42.34-0.05-63.52,0.02c-3.34,0.01-5.97-0.71-7.51-4c-1.75-3.75-1.35-7.24,0.96-10.54c0.95-1.35,2.39-2.13,4.05-2.29
		c1.19-0.11,2.39-0.12,3.59-0.12c20.37,0,40.75,0.01,61.12,0.02c1.72,0,3.48-0.16,5.05,0.83c0.38,0.59,1.09,0.47,1.61,0.76l0,0
		C1193.06,723.89,1193.35,724.14,1193.65,724.37z"/>
	<path class="st106" d="M1277.62,821.22c-4.39,6.04-10.64,9.02-17.79,9.26c-13.5,0.45-24.4-9.55-24.7-22.38
		c-0.1-4.1-0.41-8.29,2.47-11.79c1.41,1.39,0.89,3.25,1.17,4.91c1.66,10.05,12.7,14.77,20.68,8.82c4.7-3.5,6.51-9.37,4.62-14.96
		c-1.61-4.76-6.81-8.28-12.42-8.46c-1.53-0.05-3.2,0.74-4.55-0.63c5.31-4.51,18.35-4.69,25.65,1.15c1.13,0.91,2.2,1.88,3.3,2.82
		c0.56,0.49,1.14,0.97,1.55,1.62l0,0.01c0.26,0.29,0.54,0.57,0.72,0.91c5.2,8.2,5.69,16.69,1.59,25.46
		c-0.22,0.29-0.46,0.58-0.7,0.85l0.01,0C1278.56,819.53,1278.18,820.44,1277.62,821.22z"/>
	<path class="st107" d="M1247.1,785.99c2.6-0.03,5.11-0.59,7.81-0.11c5.07,0.9,10.76,7.21,10.92,13c0.21,7.83-5.27,14.26-13.4,14.9
		c-7.28,0.57-14.03-4.86-14.8-13.48c-0.12-1.32-0.03-2.65-0.03-3.98c1.61-4.12,4.13-7.46,8.13-9.55c0.16-0.27,0.39-0.44,0.69-0.52
		C1246.64,786.12,1246.86,786.04,1247.1,785.99z"/>
	<path class="st104" d="M855.2,327.6c-1.01-0.14-2.09,0.3-3.51-0.58c140.09,0,279.71,0,419.76,0c-1.58,0.91-2.97,0.43-4.26,0.58
		c-1.39,0.73-2.88,0.37-4.32,0.37c-134.45,0.02-268.9,0.02-403.36,0C858.08,327.97,856.59,328.33,855.2,327.6z"/>
	<path class="st108" d="M855.2,327.6c137.33,0,274.66,0,411.99,0c-0.81,1.29-2.11,0.63-3.2,0.8c-136.27,0-272.53,0-408.8,0
		C855.2,328.13,855.2,327.87,855.2,327.6z"/>
	<path class="st109" d="M936.2,821.91c-0.68-0.01-1.36-0.01-2.03-0.02c0.05-6.92,0.13-13.84,0.14-20.76
		c0.02-14.11,0-28.22-0.01-42.32c0.58-0.01,1.17-0.01,1.75-0.02c0,19.84-0.01,39.69-0.01,59.53
		C936.04,819.52,936.15,820.71,936.2,821.91z"/>
	<path class="st110" d="M1200.89,633.16c-0.58,0.01-1.16,0.01-1.74,0.02c-0.01-19.92-0.01-39.83-0.02-59.75c0.59,0,1.18,0,1.77,0.01
		C1200.9,593.34,1200.89,613.25,1200.89,633.16z"/>
	<path class="st104" d="M1273.05,328.65c-0.37,1.46-1.65,1.5-2.37,2.2c-0.67,0.64-1.67,1.2-2.28,0.07c-0.42-0.77,0.46-1.4,1.06-1.88
		C1270.57,328.17,1271.76,328.3,1273.05,328.65z"/>
	<path class="st111" d="M1277.62,821.22c-0.03-1.18,0.48-2,1.61-2.4C1279.2,819.96,1278.64,820.75,1277.62,821.22z"/>
	<path class="st112" d="M1277.61,791.59c-0.76-0.3-1.31-0.81-1.55-1.62C1277.07,790.04,1277.6,790.57,1277.61,791.59z"/>
	<path class="st113" d="M1192.79,723.61c-0.85,0.41-1.6,0.61-1.61-0.76C1191.87,722.77,1192.44,722.97,1192.79,723.61z"/>
	<path class="st113" d="M1193.65,724.37c-0.28-0.26-0.57-0.51-0.85-0.77C1193.25,723.68,1193.52,723.95,1193.65,724.37z"/>
	<path class="st106" d="M1246.43,786.25c-0.23,0.17-0.46,0.35-0.69,0.52C1245.82,786.4,1246.04,786.22,1246.43,786.25z"/>
	<path class="st112" d="M1278.34,792.51c-0.24-0.3-0.48-0.61-0.72-0.91C1278.02,791.77,1278.27,792.07,1278.34,792.51z"/>
	<path class="st111" d="M1279.22,818.82c0.23-0.28,0.47-0.57,0.7-0.85C1279.87,818.41,1279.64,818.69,1279.22,818.82z"/>
	<path class="st114" d="M566.41,827.18c0,8.81-5.74,14.48-14.09,14.92c-8.1,0.42-15.58-7.26-15.42-14.53
		c0.18-7.9,6.04-15.27,15.19-15.18C560.25,812.47,566.41,818.79,566.41,827.18z"/>
	<path class="st95" d="M179.98,778.79c-0.26,0.27-0.51,0.54-0.77,0.8C179.47,779.33,179.73,779.06,179.98,778.79z"/>
	<path class="st95" d="M179.18,780.37c-0.26,0.27-0.51,0.55-0.77,0.82C178.66,780.92,178.92,780.65,179.18,780.37z"/>
	<path class="st74" d="M612.47,726.61c0.37-0.26,0.57-0.52,0.73-0.5c0.34,0.05,0.69,0.2,0.98,0.4c0.37,0.25,0.3,0.37-0.15,0.29
		C613.57,726.72,613.1,726.68,612.47,726.61z"/>
	<path class="st115" d="M1282.4,518.8c-0.86-0.14-1.52-0.52-1.55-1.5c-0.04-1.2-0.05-2.39-0.05-3.59c0-54.43,0-108.87,0-163.3
		c0-1.06-0.08-2.14,0.06-3.19c0.15-1.08,0.96-0.51,1.54-0.42c0.71,1.25,0.37,2.61,0.37,3.92c0.02,54.72,0.02,109.45,0,164.17
		C1282.77,516.19,1283.11,517.55,1282.4,518.8z"/>
	<path class="st116" d="M1282.4,518.8c0-57.33,0-114.67,0-172c0.48-0.26,0.76,0.01,0.78,0.43c0.05,1.06,0.02,2.13,0.02,3.2
		c0,54.48,0.01,108.95-0.03,163.43C1283.17,515.51,1283.85,517.34,1282.4,518.8z"/>
	<path class="st12" d="M848.91,333.37c-0.1-0.96,0.08-1.91,1.09-2.18c1.11-0.3,1.1,0.71,1.26,1.43
		C850.63,333.34,849.76,333.31,848.91,333.37z"/>
	<path class="st101" d="M1113.52,694.77c0.01-17.98,0.02-35.95,0.03-53.93c0-0.93,0.06-1.87-0.01-2.8
		c-0.12-1.86,0.67-2.74,2.56-2.58c0.4,0.03,0.8,0,1.2,0c26.5,0,52.99,0,79.49,0c0.8,0,1.59,0.09,2.39,0.14
		c1.05,1.25,0.8,2.77,0.8,4.21c0.02,17.18,0.02,34.37,0,51.55c0,1.44,0.26,2.96-0.82,4.2c-27.17,0-54.33,0.01-81.5-0.01
		C1116.26,695.56,1114.7,696.07,1113.52,694.77z"/>
	<path class="st101" d="M939.14,635.63c1.06-0.06,2.12-0.16,3.18-0.16c26.2-0.01,52.39-0.01,78.59,0c1.06,0,2.12,0.11,3.18,0.17
		c-0.02,18.36-0.05,36.73-0.06,55.09c0,5.09,0.28,4.85-4.7,4.85c-25.15,0-50.3,0-75.45,0c-0.4,0-0.8,0.01-1.2,0
		c-3.41-0.07-3.47-0.07-3.47-3.66c-0.02-18.1-0.01-36.2-0.01-54.29C939.18,636.96,939.15,636.3,939.14,635.63z"/>
	<path class="st101" d="M1026.25,694.74c0.02-18.12,0.04-36.24,0.06-54.37c0-5.28-0.3-4.91,5.05-4.91c25.32,0,50.64,0,75.96,0.01
		c1.33,0,2.66,0.08,3.99,0.13c-0.02,18.36-0.05,36.71-0.07,55.07c-0.01,5.26,0.31,4.92-5.03,4.92c-25.14,0-50.28,0.01-75.42-0.02
		C1029.25,695.56,1027.56,696.11,1026.25,694.74z"/>
	<path class="st101" d="M936.72,635.55c0.06,3.04,0.16,6.09,0.17,9.13c0.03,16.69,0.04,33.38,0.05,50.08
		c-1.05,1.18-2.46,0.82-3.75,0.82c-22.66,0.02-45.33,0.03-67.99,0c-4.82-0.01-8.56-2.49-11.99-5.56c-1.1-0.99-1.25-2.26-1.25-3.64
		c0.01-15.86-0.01-31.73,0.02-47.59c0.01-3.12,0.09-3.18,3.55-3.18c12.26-0.03,24.53-0.01,36.79-0.01
		C907.12,635.58,921.92,635.56,936.72,635.55z"/>
	<path class="st117" d="M1199.16,695.58c0.01-19.99,0.01-39.98,0.02-59.97c0.56,0.01,1.12,0.01,1.67,0.02c0,19.98,0,39.96,0,59.95
		C1200.29,695.57,1199.73,695.58,1199.16,695.58z"/>
	<path class="st118" d="M1243.16,798.33c0.06-3.73,2.26-5.92,5.98-5.94c3.51-0.02,6.01,2.43,6.05,5.93c0.04,3.64-2.6,6.21-6.28,6.09
		C1245.07,804.29,1243.1,802.21,1243.16,798.33z"/>
	<path class="st119" d="M539.19,827.04c-0.75-7.67,6.53-12.75,12.77-12.98c7.31-0.27,12.62,5.9,12.92,13.75
		c0.24,6.34-6.34,12.55-13.34,12.57C544.78,840.4,539.18,834.31,539.19,827.04z"/>
</g>
<path class="st120" d="M569.86,621H173.14c-10.57,0-19.14-8.57-19.14-19.14V353.14c0-10.57,8.57-19.14,19.14-19.14h396.72
	c10.57,0,19.14,8.57,19.14,19.14v248.72C589,612.43,580.43,621,569.86,621z"/>
</svg>
