<svg xmlns="http://www.w3.org/2000/svg" viewBox="0 0 368.5 368.41"><defs><style>.cls-1{fill:#00c5fc;stroke:#000;stroke-miterlimit:10;}</style></defs><g id="Capa_1" data-name="Capa 1"><path id="s2" class="cls-1" d="M177,255.39c-24.6,1.11-48.93-15.54-58.66-30.6a74.93,74.93,0,0,1-11-28.27c-3.94-22.93,2.21-43,17.65-60.2a65.87,65.87,0,0,1,19.73-14.88c4.81-2.41,10-1.51,12.94,2.22a9.74,9.74,0,0,1-2.85,14.45c-6.19,3.43-11.91,7.42-16.57,12.81A50.61,50.61,0,0,0,126,179.14a51.57,51.57,0,0,0,38.39,55.26c28,7.25,57.41-10.91,63-39.19,3.54-17.86-1.1-33.49-13.63-46.71a55.42,55.42,0,0,0-13.19-9.79,14.32,14.32,0,0,1-3.34-2.47,9.64,9.64,0,0,1,10.84-15.45,60.14,60.14,0,0,1,15.12,9.74c12.62,11,20.9,24.63,23.93,41.23a70.12,70.12,0,0,1,.42,20.2,72.52,72.52,0,0,1-6.35,23.47c-5.79,12.33-14.86,21.67-26.22,29a67.14,67.14,0,0,1-27.93,10.41C183.75,255.26,180.38,255.22,177,255.39Z"/><path id="s1" class="cls-1" d="M167.41,160.16q0-15.56,0-31.13c0-2.83-.09-5.66.09-8.48a9.48,9.48,0,0,1,4-7.44,9.58,9.58,0,0,1,15,5.62,17.43,17.43,0,0,1,.47,3.87q0,34.34-.11,68.67c0,4.82-2.65,8.53-6.84,9.71a9.89,9.89,0,0,1-11.1-4.09A10.55,10.55,0,0,1,167.4,191Q167.43,175.6,167.41,160.16Z"/></g></svg>