<svg id="Capa_1" data-name="Capa 1" xmlns="http://www.w3.org/2000/svg" viewBox="0 0 131 132"><path id="s2" d="M65.11,119.29C46.93,120.11,29,107.8,21.75,96.67a55.46,55.46,0,0,1-8.16-20.9C10.67,58.82,15.22,44,26.64,31.27a48.54,48.54,0,0,1,14.58-11c3.55-1.79,7.39-1.12,9.56,1.64A7.19,7.19,0,0,1,48.67,32.6a43.77,43.77,0,0,0-12.24,9.47,37.44,37.44,0,0,0-9,20.85,38.13,38.13,0,0,0,28.38,40.85c20.66,5.36,42.43-8.06,46.57-29,2.61-13.21-.82-24.76-10.08-34.53A40.74,40.74,0,0,0,82.53,33a10.65,10.65,0,0,1-2.48-1.82,7,7,0,0,1-.57-9,6.9,6.9,0,0,1,8.58-2.37A44.31,44.31,0,0,1,99.24,27c9.33,8.16,15.45,18.21,17.69,30.48a51.87,51.87,0,0,1,.32,14.93,53.86,53.86,0,0,1-4.7,17.35c-4.28,9.12-11,16-19.38,21.43a49.74,49.74,0,0,1-20.65,7.7C70.08,119.2,67.58,119.16,65.11,119.29Z"/><path id="s1" d="M58,48.9q0-11.51,0-23c0-2.09-.07-4.19.06-6.27a7.12,7.12,0,0,1,14-1.35,12,12,0,0,1,.34,2.87q0,25.36-.07,50.75c0,3.57-2,6.31-5.06,7.18a7.32,7.32,0,0,1-8.21-3A7.83,7.83,0,0,1,58,71.72Q58,60.31,58,48.9Z"/></svg>